<svg version="1.1" id="Layer_1" xmlns="http://www.w3.org/2000/svg" xmlns:xlink="http://www.w3.org/1999/xlink" x="0px" y="0px"
	 width="100%" viewBox="0 0 924 965" enable-background="new 0 0 924 965" xml:space="preserve">
<path fill="#000000" opacity="1.000000" stroke="none" 
	d="
M925.000000,330.000000 
	C925.000000,542.333313 925.000000,754.166687 925.000000,966.000000 
	C617.000000,966.000000 309.000000,966.000000 1.000000,966.000000 
	C1.000000,644.333313 1.000000,322.666656 1.000000,1.000000 
	C309.000000,1.000000 617.000000,1.000000 925.000000,1.000000 
	C925.000000,110.500000 925.000000,220.000000 925.000000,330.000000 
M368.786987,845.945740 
	C374.025238,846.332092 377.948334,847.993774 380.275391,853.537354 
	C381.423126,856.271484 385.340515,857.842957 388.543579,860.478516 
	C390.571014,860.478516 392.598450,860.478516 394.678528,860.478516 
	C398.303040,869.689819 398.304321,869.691345 406.046265,863.231628 
	C406.415955,862.923157 406.725677,862.542847 407.873596,862.031433 
	C415.251678,860.965515 422.629730,859.899597 430.872223,858.974609 
	C435.095459,859.657532 439.399963,860.026367 443.523895,861.093140 
	C450.648865,862.936157 457.596527,865.479309 464.741638,867.225159 
	C470.774506,868.699219 476.776855,869.666748 478.983154,876.796570 
	C479.260956,877.694397 480.953979,878.154358 482.825684,879.010193 
	C487.577789,877.892639 492.305298,876.641785 497.100403,875.757568 
	C498.205597,875.553833 499.542633,876.607117 500.842224,877.838501 
	C501.688019,884.162109 505.674072,887.638367 511.437653,889.469666 
	C514.804260,890.539368 518.139648,889.414612 518.767639,886.305420 
	C519.678467,881.795654 520.330994,876.575195 518.907776,872.403625 
	C516.658813,865.811523 516.990234,864.131897 524.825500,864.044250 
	C528.056152,863.170410 531.682861,862.957031 534.444702,861.301270 
	C543.420959,855.919739 551.349915,858.127747 555.767883,867.703796 
	C556.924194,870.210266 558.356384,872.589355 559.876465,875.615234 
	C560.282043,876.135254 560.734863,876.625427 561.085205,877.180298 
	C562.983765,880.186951 565.985535,881.120117 568.760315,879.514282 
	C571.612122,877.863892 572.755676,874.825745 571.174805,871.346252 
	C570.570984,870.017029 570.237610,868.555420 569.865906,867.131958 
	C568.045410,860.159424 570.680847,855.854492 577.694641,854.718323 
	C581.208862,854.149048 583.998230,852.930603 585.703979,848.918823 
	C593.465820,843.897949 601.227661,838.877075 609.752319,833.886169 
	C617.889526,830.745667 626.026733,827.605164 634.832520,824.205994 
	C642.217773,820.744568 649.603027,817.283081 657.918213,813.942017 
	C661.394531,814.054932 664.915833,814.547668 668.330872,814.143250 
	C670.499207,813.886353 674.347229,812.173157 674.290649,811.322632 
	C673.939392,806.040405 678.259094,804.536865 681.591675,801.506226 
	C688.390930,796.944092 695.190125,792.381958 702.646606,787.669067 
	C713.504211,780.510376 724.400696,773.409485 735.193054,766.153809 
	C738.007751,764.261414 740.647827,763.075317 744.183411,765.686340 
	C746.283875,766.095093 749.437195,767.522766 750.248718,766.684082 
	C751.612854,765.274597 751.711792,762.443970 751.913269,760.173157 
	C752.054077,758.585999 750.672729,756.344177 751.357056,755.411743 
	C755.001526,750.446045 759.083130,745.801025 763.665161,740.856812 
	C770.222229,733.962524 776.779236,727.068237 783.901550,719.848083 
	C790.249390,713.162354 796.597229,706.476624 803.531860,699.512634 
	C809.107666,693.390015 814.683533,687.267395 820.791748,680.728943 
	C825.307434,671.874023 829.823120,663.019104 834.776489,653.641174 
	C837.887939,646.846741 840.999451,640.052368 844.675537,632.838074 
	C846.721375,628.314453 848.547852,623.675598 850.851318,619.287170 
	C860.543457,600.822693 868.040405,581.527344 873.015503,561.280457 
	C873.932373,557.549255 876.104309,557.256897 878.923889,558.419373 
	C881.670898,559.552002 884.136719,561.496277 886.950073,562.287170 
	C888.508545,562.725220 890.525879,561.531006 892.336365,561.072510 
	C891.930237,559.657959 891.918213,557.899963 891.042236,556.894836 
	C888.644043,554.143188 886.293213,550.868652 883.170410,549.340210 
	C878.178955,546.897156 878.444519,543.732239 879.305786,539.216797 
	C881.817932,526.045410 883.367249,512.677612 886.211243,499.586090 
	C889.008362,486.710144 889.505249,472.545166 901.846008,463.772614 
	C905.054810,461.491577 904.329224,458.923126 903.301941,455.876587 
	C902.482788,453.447113 901.402527,450.486694 902.092773,448.279327 
	C904.498657,440.584930 901.399536,435.229431 896.242004,430.017670 
	C888.940430,422.639282 883.462646,414.415741 884.507507,403.127655 
	C884.897095,398.918365 883.708557,394.558197 883.200012,390.271545 
	C881.821472,378.651062 878.280457,367.276825 879.727234,355.313141 
	C880.009216,352.981476 878.408081,350.301971 877.311646,347.952789 
	C875.791382,344.695587 873.419250,341.767944 872.299988,338.403717 
	C868.108948,325.807220 864.364258,313.062988 860.271606,300.432678 
	C858.694641,295.566132 856.690735,290.833649 854.781860,286.079987 
	C851.946106,279.018158 849.022034,271.991821 846.018738,264.225769 
	C842.057129,256.410126 838.095520,248.594482 833.878784,240.147858 
	C829.685181,233.729065 825.491577,227.310257 821.108887,220.169647 
	C815.775818,208.617233 810.457397,197.057999 805.084167,185.524307 
	C804.609558,184.505493 803.777222,183.653320 802.889282,182.107254 
	C795.950745,175.330032 789.012268,168.552826 781.643982,161.242065 
	C776.935303,157.851700 772.200195,154.497177 767.529419,151.055405 
	C765.303589,149.415237 763.200073,147.609085 760.690552,145.314194 
	C759.047119,144.185333 757.315552,143.164459 755.776855,141.907349 
	C751.195862,138.164566 746.673767,134.348862 742.165161,130.518677 
	C740.629822,129.214386 739.203125,127.782333 737.470459,126.110275 
	C737.470459,126.110275 737.086304,126.026154 736.851685,125.570358 
	C736.559143,125.421120 736.266541,125.271881 735.544556,124.607666 
	C733.114990,122.389694 730.822144,119.994751 728.227722,117.990074 
	C722.562805,113.612862 716.744629,109.434021 710.275269,105.024994 
	C709.053711,104.297867 707.801392,103.617470 706.615784,102.835831 
	C700.082825,98.529015 693.566101,94.197487 686.551636,89.365791 
	C680.307800,86.119415 674.063904,82.873039 667.382324,79.043083 
	C662.792358,76.444778 657.841492,74.318359 653.691650,71.144531 
	C646.305298,65.495338 638.286377,62.228123 628.375244,61.739765 
	C622.248291,59.217186 616.121399,56.694611 609.166748,54.017727 
	C604.107544,52.739998 599.048401,51.462269 593.384949,49.704689 
	C587.921875,48.518459 582.458862,47.332230 576.279236,45.828075 
	C572.599731,44.571899 568.975464,43.099888 565.220337,42.139103 
	C562.904846,41.546665 560.389954,41.733829 557.136841,41.283047 
	C548.755188,40.250546 540.373596,39.218040 531.150208,38.029255 
	C523.100952,37.350464 515.051697,36.671669 506.311646,35.584721 
	C498.204193,34.129436 490.096710,32.674152 481.067749,31.041767 
	C468.945801,31.359459 456.600647,28.512701 444.804657,33.669605 
	C443.846100,34.088669 442.522522,33.680431 441.368927,33.644619 
	C436.916168,33.506393 432.463531,33.363293 427.104828,33.067806 
	C418.734680,32.537308 410.396851,35.839764 401.317017,33.247715 
	C394.612854,39.059605 386.791473,42.259045 377.244141,43.123646 
	C370.499054,45.474491 363.753967,47.825340 356.214539,50.081532 
	C350.106506,51.622749 343.998474,53.163963 337.065155,54.838806 
	C332.045685,56.263390 327.026184,57.687973 321.269623,59.113464 
	C315.848755,61.171211 310.427917,63.228958 304.153198,65.173347 
	C298.145782,63.938778 292.138336,62.704205 285.369965,61.127995 
	C278.583008,61.829689 271.796082,62.531384 264.388123,62.841133 
	C263.381042,59.049515 261.285614,56.327156 257.011108,57.156231 
	C254.117371,57.717487 252.847992,59.942249 253.441132,63.259037 
	C254.691620,62.847633 255.623016,62.288979 256.550140,62.295963 
	C257.903381,62.306152 259.253540,62.722748 260.605011,62.966095 
	C259.784027,63.786011 259.027496,64.685593 258.130310,65.411301 
	C255.127487,67.840172 252.997284,76.003426 253.906433,77.567543 
	C251.419876,80.797516 248.764481,83.253654 247.375076,86.289246 
	C245.395508,90.614220 244.284821,95.346443 242.914337,99.937943 
	C241.545532,104.523895 238.541107,107.440262 234.471741,109.889175 
	C230.257904,112.425034 226.548874,115.799690 222.032471,119.076332 
	C219.805679,121.263718 217.586563,123.459000 215.350418,125.636787 
	C211.154388,129.723343 206.948486,133.799759 202.182175,138.211700 
	C195.550034,144.656464 188.917892,151.101227 181.745834,157.889862 
	C180.206207,159.396942 178.552811,160.805252 177.145370,162.427063 
	C167.816177,173.177200 158.539734,183.973114 148.884018,195.250504 
	C144.534256,201.484940 138.024429,203.704956 130.137558,204.907471 
	C125.429573,206.289948 120.721596,207.672440 115.294212,209.105881 
	C108.904648,211.599823 103.204941,214.855133 100.546730,222.519867 
	C98.428055,227.917358 94.615555,232.894928 95.907433,239.178787 
	C97.352531,246.207932 99.028709,253.189560 100.683159,261.047180 
	C100.727119,263.330261 100.771080,265.613312 100.353935,268.400452 
	C98.933266,271.344116 97.366905,274.227692 96.122871,277.244202 
	C93.689819,283.143890 91.753654,289.267883 89.028580,295.022858 
	C85.650421,302.157043 81.680389,309.011017 77.432549,316.445190 
	C75.209816,321.453186 73.144554,326.539307 70.711609,331.443024 
	C68.949532,334.994598 66.306198,338.134888 64.747765,341.756317 
	C61.268448,349.841400 58.183155,358.097900 55.034058,366.321564 
	C54.453098,367.838745 54.180000,369.515259 54.014488,371.143616 
	C52.534359,385.705444 49.417839,399.599762 38.936020,410.772095 
	C37.528175,412.272736 36.621262,414.411499 35.953739,416.412018 
	C30.405802,433.038483 29.300903,449.884583 33.554764,467.008942 
	C34.849384,472.220520 34.419655,477.253296 30.696093,481.578003 
	C26.262577,486.727386 21.552626,491.685364 17.628986,497.200470 
	C16.348940,498.999756 16.125923,502.989960 17.292860,504.698914 
	C18.535711,506.519104 22.363781,508.085419 24.404846,507.493317 
	C27.431099,506.615448 30.400600,504.161469 32.454483,501.619171 
	C35.989956,497.242950 38.791035,492.274902 41.920971,487.568970 
	C43.544643,485.127716 45.369831,484.496826 48.222065,486.082031 
	C53.012707,488.744415 58.175930,490.743500 62.926308,493.468109 
	C65.111641,494.721527 67.636833,496.719421 68.363823,498.922302 
	C70.369934,505.001099 71.666489,511.333923 72.949692,517.626221 
	C74.398666,524.731384 75.527481,531.901794 76.880943,539.873901 
	C77.977150,545.734619 78.956116,551.620300 80.198036,557.450012 
	C81.904594,565.460693 80.020470,572.140381 73.568390,577.429810 
	C71.527657,579.102844 69.805771,581.377441 72.288879,583.753174 
	C77.707703,588.937805 77.748909,595.833679 78.276886,602.959045 
	C76.670708,605.619751 75.263779,608.431274 73.398735,610.896179 
	C71.745522,613.081055 69.615341,616.489380 67.639046,616.528870 
	C62.947731,616.622864 61.159077,619.224182 58.966644,622.463013 
	C57.132996,625.171753 54.450344,627.300232 52.183865,629.723267 
	C50.267498,631.771973 48.294247,633.783325 46.548912,635.972839 
	C43.162533,640.220825 39.878185,644.552307 36.636063,648.912109 
	C35.383190,650.596863 33.103374,652.751404 33.443287,654.179932 
	C35.188683,661.515381 34.242207,667.530884 27.632038,672.096130 
	C26.851534,672.635193 26.540104,675.537109 27.104183,675.993896 
	C28.333000,676.988953 30.246298,677.344604 31.921364,677.492920 
	C32.721546,677.563782 33.636600,676.596191 34.464672,676.046265 
	C37.318920,674.150757 38.445305,675.047363 39.087692,678.300537 
	C39.645683,681.126465 40.688969,684.012146 42.180744,686.468811 
	C46.584259,693.720642 46.749538,693.678467 40.727882,699.813110 
	C37.761211,702.835449 35.851852,707.032227 30.393728,707.214172 
	C28.998013,707.260742 27.739256,711.415405 26.417583,713.682617 
	C28.736412,713.825256 31.090405,714.257690 33.358547,713.982483 
	C34.417461,713.854004 35.209415,712.197632 36.296001,711.506897 
	C40.739506,708.682373 45.189438,705.853210 49.798195,703.319031 
	C50.523254,702.920349 52.391071,703.710999 53.202648,704.496887 
	C60.768242,711.822449 70.609970,716.919189 75.342735,727.054810 
	C75.867577,728.178772 77.141113,728.953186 78.369057,730.489990 
	C83.307922,734.841553 88.246788,739.193054 93.443611,743.771912 
	C91.235016,746.794678 89.078194,748.990356 87.890923,751.623230 
	C87.022369,753.549255 87.428444,756.050049 87.266380,758.294678 
	C89.409462,757.710999 91.620949,757.302307 93.677925,756.498291 
	C96.123131,755.542480 98.435539,754.247009 100.969917,753.781006 
	C100.626816,755.055359 100.693413,756.799316 99.867371,757.520142 
	C96.825630,760.174072 93.488075,762.489014 90.261795,764.931396 
	C90.449974,765.259644 90.638161,765.587830 90.826340,765.916016 
	C100.348289,763.987122 109.870232,762.058228 119.624733,760.082214 
	C118.737709,757.099304 118.016792,754.675049 117.217331,751.986633 
	C120.773003,750.974731 123.915955,750.080322 127.974480,749.144775 
	C135.981445,748.464722 143.988403,747.784668 152.853653,747.268799 
	C158.488861,747.351807 164.557510,746.631653 165.865097,754.948669 
	C169.514267,752.832642 172.787369,750.934631 176.832550,748.998108 
	C183.293411,745.835205 188.644012,747.786682 193.363098,752.600037 
	C194.984360,754.253784 196.541061,755.972290 198.193100,757.594055 
	C202.773651,762.090637 207.388870,766.551941 212.355957,771.584595 
	C213.907684,772.828674 215.524948,774.000122 216.999222,775.330017 
	C222.024521,779.863403 226.999496,784.452576 232.305481,789.611633 
	C240.214035,795.711426 248.122604,801.811279 256.435944,808.452148 
	C264.549896,814.183350 272.527557,820.206421 283.700348,821.289551 
	C291.000763,822.177246 297.941101,823.718262 301.869232,831.883850 
	C302.585968,833.889893 303.204803,835.937927 304.044067,837.891357 
	C305.114990,840.384094 305.798981,843.410950 307.651398,845.125183 
	C311.772339,848.938965 313.741089,853.485046 314.681305,858.822205 
	C312.477661,859.798828 310.502106,860.674316 307.518250,861.996704 
	C310.063019,862.857910 311.547943,863.648010 313.106598,863.840393 
	C322.215393,864.964233 322.281158,864.972656 320.212128,873.788513 
	C319.247498,877.898804 319.594757,881.144714 325.557159,881.874329 
	C328.304749,882.059570 331.052338,882.244812 334.408691,882.471130 
	C333.750488,885.154968 332.986450,887.168518 332.801941,889.233826 
	C332.292755,894.932739 331.294067,900.726685 331.858185,906.345581 
	C332.489319,912.631653 338.864075,915.482056 344.149689,911.940979 
	C350.148865,907.921631 355.915222,903.365601 361.053986,898.303162 
	C366.438049,892.999084 363.947784,885.763062 356.761597,883.289001 
	C353.196960,882.061768 349.739868,880.367981 346.472260,878.474243 
	C342.995361,876.459167 343.272552,874.340088 346.037415,871.379028 
	C347.632568,869.670593 348.571503,867.164551 349.267517,864.855286 
	C349.917725,862.697998 349.856842,860.326416 350.917816,857.944214 
	C351.906921,857.856018 352.899200,857.794373 353.884552,857.675232 
	C359.467194,856.999878 360.247345,855.633484 357.586761,850.728394 
	C356.016724,847.833801 354.172028,845.088257 351.933167,841.429749 
	C357.893066,843.027832 362.953247,844.384644 368.786987,845.945740 
z"/>
<path fill="#864D25" opacity="1.000000" stroke="none" 
	d="
M846.135498,264.950378 
	C849.022034,271.991821 851.946106,279.018158 854.781860,286.079987 
	C856.690735,290.833649 858.694641,295.566132 860.271606,300.432678 
	C864.364258,313.062988 868.108948,325.807220 872.299988,338.403717 
	C873.419250,341.767944 875.791382,344.695587 877.311646,347.952789 
	C878.408081,350.301971 880.009216,352.981476 879.727234,355.313141 
	C878.280457,367.276825 881.821472,378.651062 883.200012,390.271545 
	C883.708557,394.558197 884.897095,398.918365 884.507507,403.127655 
	C883.462646,414.415741 888.940430,422.639282 896.242004,430.017670 
	C901.399536,435.229431 904.498657,440.584930 902.092773,448.279327 
	C901.402527,450.486694 902.482788,453.447113 903.301941,455.876587 
	C904.329224,458.923126 905.054810,461.491577 901.846008,463.772614 
	C889.505249,472.545166 889.008362,486.710144 886.211243,499.586090 
	C883.367249,512.677612 881.817932,526.045410 879.305786,539.216797 
	C878.444519,543.732239 878.178955,546.897156 883.170410,549.340210 
	C886.293213,550.868652 888.644043,554.143188 891.042236,556.894836 
	C891.918213,557.899963 891.930237,559.657959 892.336365,561.072510 
	C890.525879,561.531006 888.508545,562.725220 886.950073,562.287170 
	C884.136719,561.496277 881.670898,559.552002 878.923889,558.419373 
	C876.104309,557.256897 873.932373,557.549255 873.015503,561.280457 
	C868.040405,581.527344 860.543457,600.822693 850.851318,619.287170 
	C848.547852,623.675598 846.721375,628.314453 844.364136,632.559998 
	C844.035278,511.488617 844.017578,390.695282 844.006287,269.901978 
	C844.006226,268.905396 843.850403,267.808136 844.210266,266.941895 
	C844.539856,266.148407 845.469971,265.604340 846.135498,264.950378 
z"/>
<path fill="#8D552F" opacity="1.000000" stroke="none" 
	d="
M100.805481,753.098755 
	C98.435539,754.247009 96.123131,755.542480 93.677925,756.498291 
	C91.620949,757.302307 89.409462,757.710999 87.266380,758.294678 
	C87.428444,756.050049 87.022369,753.549255 87.890923,751.623230 
	C89.078194,748.990356 91.235016,746.794678 93.443611,743.771912 
	C88.246788,739.193054 83.307922,734.841553 78.377670,729.814087 
	C78.590652,723.509216 78.972008,717.880066 78.970673,712.251099 
	C78.961998,675.649536 78.870163,639.048035 78.805550,602.446472 
	C77.748909,595.833679 77.707703,588.937805 72.288879,583.753174 
	C69.805771,581.377441 71.527657,579.102844 73.568390,577.429810 
	C80.020470,572.140381 81.904594,565.460693 80.198036,557.450012 
	C78.956116,551.620300 77.977150,545.734619 77.228928,539.330688 
	C78.051056,536.804504 78.937691,534.821899 78.939705,532.838379 
	C79.010979,462.464325 79.007515,392.090240 78.956093,321.716156 
	C78.954697,319.805878 78.310486,317.896057 77.966034,315.986023 
	C81.680389,309.011017 85.650421,302.157043 89.028580,295.022858 
	C91.753654,289.267883 93.689819,283.143890 96.122871,277.244202 
	C97.366905,274.227692 98.933266,271.344116 100.866516,268.470154 
	C101.586166,270.667145 101.972748,272.794312 101.974068,274.921783 
	C102.007416,328.689514 102.000252,382.457306 102.000595,436.225067 
	C102.000603,437.556763 102.084862,438.894165 101.990700,440.218994 
	C101.791283,443.025177 103.066055,444.238098 105.886032,444.323578 
	C105.908615,445.109344 105.870018,445.559998 105.429611,446.017639 
	C100.246422,446.468231 102.079865,450.213837 102.077682,452.581116 
	C101.987320,550.364075 102.008781,648.147034 101.950333,745.930054 
	C101.948898,748.319763 101.203751,750.709167 100.805481,753.098755 
z"/>
<path fill="#864D25" opacity="1.000000" stroke="none" 
	d="
M77.699295,316.215607 
	C78.310486,317.896057 78.954697,319.805878 78.956093,321.716156 
	C79.007515,392.090240 79.010979,462.464325 78.939705,532.838379 
	C78.937691,534.821899 78.051056,536.804504 77.186218,538.915649 
	C75.527481,531.901794 74.398666,524.731384 72.949692,517.626221 
	C71.666489,511.333923 70.369934,505.001099 68.363823,498.922302 
	C67.636833,496.719421 65.111641,494.721527 62.926308,493.468109 
	C58.175930,490.743500 53.012707,488.744415 48.222065,486.082031 
	C45.369831,484.496826 43.544643,485.127716 41.920971,487.568970 
	C38.791035,492.274902 35.989956,497.242950 32.454483,501.619171 
	C30.400600,504.161469 27.431099,506.615448 24.404846,507.493317 
	C22.363781,508.085419 18.535711,506.519104 17.292860,504.698914 
	C16.125923,502.989960 16.348940,498.999756 17.628986,497.200470 
	C21.552626,491.685364 26.262577,486.727386 30.696093,481.578003 
	C34.419655,477.253296 34.849384,472.220520 33.554764,467.008942 
	C29.300903,449.884583 30.405802,433.038483 35.953739,416.412018 
	C36.621262,414.411499 37.528175,412.272736 38.936020,410.772095 
	C49.417839,399.599762 52.534359,385.705444 54.014488,371.143616 
	C54.180000,369.515259 54.453098,367.838745 55.034058,366.321564 
	C58.183155,358.097900 61.268448,349.841400 64.747765,341.756317 
	C66.306198,338.134888 68.949532,334.994598 70.711609,331.443024 
	C73.144554,326.539307 75.209816,321.453186 77.699295,316.215607 
z"/>
<path fill="#935C37" opacity="1.000000" stroke="none" 
	d="
M100.887695,753.439819 
	C101.203751,750.709167 101.948898,748.319763 101.950333,745.930054 
	C102.008781,648.147034 101.987320,550.364075 102.077682,452.581116 
	C102.079865,450.213837 100.246422,446.468231 105.486885,446.472656 
	C106.508148,453.150177 107.204498,459.371033 107.606300,465.610809 
	C108.637115,481.618774 107.977692,497.748810 112.008560,513.521179 
	C113.764488,520.391907 113.920418,527.690491 115.870293,534.488708 
	C120.157028,549.434387 125.123184,564.185303 129.473633,579.150513 
	C128.424438,582.281982 127.099846,585.277466 127.093880,588.275574 
	C126.987152,641.912170 127.040184,695.549072 127.058907,749.185913 
	C123.915955,750.080322 120.773003,750.974731 117.217331,751.986633 
	C118.016792,754.675049 118.737709,757.099304 119.624733,760.082214 
	C109.870232,762.058228 100.348289,763.987122 90.826340,765.916016 
	C90.638161,765.587830 90.449974,765.259644 90.261795,764.931396 
	C93.488075,762.489014 96.825630,760.174072 99.867371,757.520142 
	C100.693413,756.799316 100.626816,755.055359 100.887695,753.439819 
z"/>
<path fill="#8D552F" opacity="1.000000" stroke="none" 
	d="
M821.297974,220.891449 
	C825.491577,227.310257 829.685181,233.729065 833.822998,240.860474 
	C833.511475,243.366333 833.032349,245.159500 833.031860,246.952820 
	C832.997070,380.823761 832.994690,514.694702 833.055725,648.565674 
	C833.056519,650.432007 833.892578,652.298035 834.338806,654.164185 
	C829.823120,663.019104 825.307434,671.874023 820.232178,680.618530 
	C819.448364,678.390503 819.030457,676.273132 819.028625,674.155334 
	C818.990479,631.131714 819.026001,588.108032 818.918762,545.084656 
	C818.913696,543.056763 817.725159,541.031799 817.056396,538.588074 
	C817.304993,536.542480 817.430603,534.869507 817.887695,533.292725 
	C825.946655,505.493073 829.525635,477.096100 828.935486,448.196838 
	C828.783875,440.770752 827.130737,433.363617 827.135132,425.948334 
	C827.147400,405.346741 822.235901,385.673126 817.188049,365.924377 
	C818.049805,363.812836 818.936035,361.832062 818.939575,359.849670 
	C819.018433,315.640930 818.968262,271.431915 819.097595,227.223419 
	C819.103760,225.110626 820.532043,223.001999 821.297974,220.891449 
z"/>
<path fill="#B78466" opacity="1.000000" stroke="none" 
	d="
M222.619049,118.807449 
	C226.548874,115.799690 230.257904,112.425034 234.471741,109.889175 
	C238.541107,107.440262 241.545532,104.523895 242.914337,99.937943 
	C244.284821,95.346443 245.395508,90.614220 247.375076,86.289246 
	C248.764481,83.253654 251.419876,80.797516 253.906433,77.567543 
	C252.997284,76.003426 255.127487,67.840172 258.130310,65.411301 
	C259.027496,64.685593 259.784027,63.786011 260.605011,62.966099 
	C259.253540,62.722748 257.903381,62.306152 256.550140,62.295963 
	C255.623016,62.288979 254.691620,62.847633 253.441132,63.259037 
	C252.847992,59.942249 254.117371,57.717487 257.011108,57.156231 
	C261.285614,56.327156 263.381042,59.049515 264.730042,63.388084 
	C266.443420,65.038300 267.814880,66.141563 268.224915,66.471420 
	C267.047974,69.085640 265.138672,71.360031 265.127869,73.643379 
	C264.944427,112.574577 264.973969,151.506943 265.079224,190.438721 
	C265.083344,191.956833 266.308716,193.471634 266.698944,195.265228 
	C252.247208,198.065811 238.108551,197.750336 224.010971,194.381195 
	C224.007446,170.899307 224.040283,147.875900 223.944092,124.853012 
	C223.935654,122.836014 223.080765,120.822548 222.619049,118.807449 
z"/>
<path fill="#895029" opacity="1.000000" stroke="none" 
	d="
M834.557617,653.902710 
	C833.892578,652.298035 833.056519,650.432007 833.055725,648.565674 
	C832.994690,514.694702 832.997070,380.823761 833.031860,246.952820 
	C833.032349,245.159500 833.511475,243.366333 833.950562,241.175964 
	C838.095520,248.594482 842.057129,256.410126 846.077148,264.588074 
	C845.469971,265.604340 844.539856,266.148407 844.210266,266.941895 
	C843.850403,267.808136 844.006226,268.905396 844.006287,269.901978 
	C844.017578,390.695282 844.035278,511.488617 844.081787,632.769958 
	C840.999451,640.052368 837.887939,646.846741 834.557617,653.902710 
z"/>
<path fill="#A16B49" opacity="1.000000" stroke="none" 
	d="
M149.246124,194.754135 
	C158.539734,183.973114 167.816177,173.177200 177.145370,162.427063 
	C178.552811,160.805252 180.206207,159.396942 182.363068,158.044983 
	C183.318970,160.449677 183.949417,162.698776 183.952927,164.948853 
	C184.013275,203.724258 183.973801,242.499847 184.041229,281.275208 
	C184.046371,284.230469 184.688751,287.184570 184.866455,290.430786 
	C178.209671,293.821747 171.665451,296.810791 165.252945,300.059784 
	C161.071716,302.178314 157.081894,304.674622 152.635590,306.863342 
	C151.843674,304.716888 151.059967,302.709625 151.055359,300.700562 
	C150.979309,267.498505 151.033249,234.296097 150.925934,201.094208 
	C150.919098,198.979050 149.831146,196.867416 149.246124,194.754135 
z"/>
<path fill="#EDC0AE" opacity="1.000000" stroke="none" 
	d="
M481.991302,878.817200 
	C480.953979,878.154358 479.260956,877.694397 478.983154,876.796570 
	C476.776855,869.666748 470.774506,868.699219 464.741638,867.225159 
	C457.596527,865.479309 450.648865,862.936157 443.523895,861.093140 
	C439.399963,860.026367 435.095459,859.657532 430.356262,858.504944 
	C429.560547,856.240417 429.041199,854.446045 429.037689,852.650635 
	C428.997070,831.843628 429.034424,811.036499 429.211670,789.894287 
	C431.538574,788.808167 433.660309,787.811035 435.889526,787.407532 
	C437.048615,787.197754 438.569855,788.620972 439.632904,788.307434 
	C447.134857,786.095032 453.817688,789.702881 460.867920,790.766663 
	C463.380219,791.145691 466.233002,789.466919 468.891876,788.608398 
	C470.805298,787.990479 473.163483,786.113342 474.407654,786.709351 
	C476.060242,787.500977 476.812561,790.158569 477.969971,792.002991 
	C478.596863,793.001953 479.261749,793.977051 480.286652,795.101318 
	C481.109497,797.066528 481.937714,798.892151 481.943420,800.720459 
	C482.024597,826.752502 481.994507,852.784912 481.991302,878.817200 
z"/>
<path fill="#864D25" opacity="1.000000" stroke="none" 
	d="
M78.541214,602.702759 
	C78.870163,639.048035 78.961998,675.649536 78.970673,712.251099 
	C78.972008,717.880066 78.590652,723.509216 78.226852,729.513977 
	C77.141113,728.953186 75.867577,728.178772 75.342735,727.054810 
	C70.609970,716.919189 60.768242,711.822449 53.202648,704.496887 
	C52.391071,703.710999 50.523254,702.920349 49.798195,703.319031 
	C45.189438,705.853210 40.739506,708.682373 36.296001,711.506897 
	C35.209415,712.197632 34.417461,713.854004 33.358547,713.982483 
	C31.090405,714.257690 28.736412,713.825256 26.417580,713.682617 
	C27.739256,711.415405 28.998013,707.260742 30.393728,707.214172 
	C35.851852,707.032227 37.761211,702.835449 40.727882,699.813110 
	C46.749538,693.678467 46.584259,693.720642 42.180744,686.468811 
	C40.688969,684.012146 39.645683,681.126465 39.087692,678.300537 
	C38.445305,675.047363 37.318920,674.150757 34.464672,676.046265 
	C33.636600,676.596191 32.721546,677.563782 31.921364,677.492920 
	C30.246298,677.344604 28.333000,676.988953 27.104183,675.993896 
	C26.540104,675.537109 26.851534,672.635193 27.632038,672.096130 
	C34.242207,667.530884 35.188683,661.515381 33.443287,654.179932 
	C33.103374,652.751404 35.383190,650.596863 36.636063,648.912109 
	C39.878185,644.552307 43.162533,640.220825 46.548912,635.972839 
	C48.294247,633.783325 50.267498,631.771973 52.183865,629.723267 
	C54.450344,627.300232 57.132996,625.171753 58.966644,622.463013 
	C61.159077,619.224182 62.947731,616.622864 67.639046,616.528870 
	C69.615341,616.489380 71.745522,613.081055 73.398735,610.896179 
	C75.263779,608.431274 76.670708,605.619751 78.541214,602.702759 
z"/>
<path fill="#9B6441" opacity="1.000000" stroke="none" 
	d="
M127.516693,749.165344 
	C127.040184,695.549072 126.987152,641.912170 127.093880,588.275574 
	C127.099846,585.277466 128.424438,582.281982 129.613892,579.493530 
	C137.842957,595.213806 145.593384,610.725769 153.161484,626.670410 
	C152.653046,629.545593 152.046814,631.987488 152.042770,634.430481 
	C151.980789,671.988525 151.997177,709.546570 151.995361,747.104675 
	C143.988403,747.784668 135.981445,748.464722 127.516693,749.165344 
z"/>
<path fill="#D3A38C" opacity="1.000000" stroke="none" 
	d="
M337.890442,54.705181 
	C343.998474,53.163963 350.106506,51.622749 356.610474,50.586220 
	C357.004730,87.736031 356.970673,124.381256 357.089172,161.025986 
	C357.095642,163.026367 358.375458,165.022614 359.038391,167.402908 
	C357.947144,171.551666 355.961578,175.337830 356.041168,179.080078 
	C356.144989,183.964813 354.107300,186.006500 349.962463,187.257843 
	C344.548126,188.892456 343.778442,190.200729 345.641479,195.860977 
	C346.975769,199.914764 349.731201,203.601440 350.531586,207.709290 
	C352.184387,216.192078 359.147003,217.377289 365.647980,220.770065 
	C366.894623,215.656082 368.111450,211.381332 368.954071,207.034042 
	C370.118164,201.028137 370.746948,194.910416 372.092224,188.950531 
	C372.988953,184.977707 374.878967,181.349762 380.361053,180.918427 
	C380.110321,183.066422 380.109955,184.727905 379.702881,186.282913 
	C377.401276,195.074554 375.063385,203.857773 372.616302,212.609863 
	C370.786346,219.154800 366.415497,222.532700 359.511902,223.021835 
	C350.774170,223.640915 340.836700,216.133224 337.235260,205.685852 
	C337.323517,200.264450 336.998413,195.159760 337.026917,190.057053 
	C337.279144,144.939560 337.594055,99.822426 337.890442,54.705181 
z"/>
<path fill="#955E3A" opacity="1.000000" stroke="none" 
	d="
M782.073792,161.775604 
	C789.012268,168.552826 795.950745,175.330032 802.971191,182.904663 
	C803.035400,227.623123 803.035950,271.544189 802.957092,315.465088 
	C802.952087,318.252045 802.329712,321.037842 801.637939,323.800079 
	C796.777283,321.338837 792.055908,319.227051 787.816711,316.393738 
	C780.078125,311.221558 775.789673,303.989655 777.083679,294.385101 
	C777.788635,289.152802 778.645081,283.853424 780.273315,278.858093 
	C781.839661,274.052643 782.597656,269.622894 780.139465,264.719360 
	C780.868347,261.644684 781.914551,258.925842 781.926636,256.202393 
	C782.066162,224.727203 782.049194,193.251297 782.073792,161.775604 
z"/>
<path fill="#D0A088" opacity="1.000000" stroke="none" 
	d="
M350.108948,858.049133 
	C349.856842,860.326416 349.917725,862.697998 349.267517,864.855286 
	C348.571503,867.164551 347.632568,869.670593 346.037415,871.379028 
	C343.272552,874.340088 342.995361,876.459167 346.472260,878.474243 
	C349.739868,880.367981 353.196960,882.061768 356.761597,883.289001 
	C363.947784,885.763062 366.438049,892.999084 361.053986,898.303162 
	C355.915222,903.365601 350.148865,907.921631 344.149689,911.940979 
	C338.864075,915.482056 332.489319,912.631653 331.858185,906.345581 
	C331.294067,900.726685 332.292755,894.932739 332.801941,889.233826 
	C332.986450,887.168518 333.750488,885.154968 334.408691,882.471130 
	C331.052338,882.244812 328.304749,882.059570 325.224670,881.220642 
	C324.928101,849.649597 324.931396,818.732117 325.050232,787.815063 
	C325.062195,784.701416 325.773224,781.590454 326.459534,778.730652 
	C334.173218,781.696594 341.587219,784.410034 348.920654,787.526001 
	C348.560577,789.555725 348.042419,791.182251 348.037811,792.810303 
	C347.981903,812.599670 347.942505,832.389771 348.093597,852.178162 
	C348.108582,854.140137 349.406464,856.092407 350.108948,858.049133 
z"/>
<path fill="#EDC0AE" opacity="1.000000" stroke="none" 
	d="
M428.010864,33.222012 
	C432.463531,33.363293 436.916168,33.506393 441.368927,33.644619 
	C442.522522,33.680431 443.846100,34.088669 444.804657,33.669605 
	C456.600647,28.512701 468.945801,31.359459 481.529266,31.585047 
	C481.994049,50.725147 482.117859,69.323509 481.879608,87.917236 
	C481.840790,90.948555 480.202087,93.959373 479.026855,96.766312 
	C477.224121,94.403183 475.304199,92.429413 474.247772,90.069153 
	C471.560242,84.064606 466.655792,81.960495 460.672729,82.106697 
	C456.419800,82.210617 452.193939,83.544144 447.943817,83.616798 
	C439.765991,83.756592 433.768097,87.279480 429.309265,93.631653 
	C428.744171,90.753670 428.063141,88.329422 428.050812,85.901787 
	C427.961670,68.342239 428.007660,50.782021 428.010864,33.222012 
z"/>
<path fill="#A87453" opacity="1.000000" stroke="none" 
	d="
M211.990356,771.027222 
	C207.388870,766.551941 202.773651,762.090637 198.193100,757.594055 
	C196.541061,755.972290 194.984360,754.253784 193.363098,752.600037 
	C188.644012,747.786682 183.293411,745.835205 176.164581,748.748535 
	C174.998810,746.114685 174.078949,743.732239 174.068375,741.345703 
	C173.961456,717.195862 173.929993,693.044800 174.101456,668.895691 
	C174.121506,666.071472 175.491501,663.256897 176.485031,660.703186 
	C177.581863,662.558350 178.111862,664.462219 179.325882,665.689392 
	C191.291580,677.784729 199.896774,693.041199 213.971558,703.182983 
	C213.450378,705.447449 213.030167,707.397400 213.024551,709.348572 
	C212.973434,727.123474 213.037766,744.898804 212.949600,762.673340 
	C212.935776,765.459473 212.325073,768.242676 211.990356,771.027222 
z"/>
<path fill="#BE8B6F" opacity="1.000000" stroke="none" 
	d="
M628.990295,62.125916 
	C638.286377,62.228123 646.305298,65.495338 653.691650,71.144531 
	C657.841492,74.318359 662.792358,76.444778 667.229248,79.615891 
	C666.715820,82.262268 666.051453,84.334549 666.042603,86.409630 
	C665.961853,105.386871 666.030151,124.364761 665.949219,143.341995 
	C665.939453,145.619003 665.300537,147.893311 664.582153,150.111938 
	C652.977173,143.681137 640.395508,142.597244 628.074036,140.428314 
	C628.439575,137.747208 628.957825,135.465317 628.963257,133.182220 
	C629.019714,109.496902 628.993530,85.811378 628.990295,62.125916 
z"/>
<path fill="#A87453" opacity="1.000000" stroke="none" 
	d="
M743.814758,765.110229 
	C740.647827,763.075317 738.007751,764.261414 735.193054,766.153809 
	C724.400696,773.409485 713.504211,780.510376 702.320068,787.287842 
	C701.997253,769.686584 702.035522,752.466370 701.959961,735.246582 
	C701.950745,733.147522 701.329590,731.051147 701.187622,728.683167 
	C708.363892,722.896606 715.887634,717.931030 722.184387,711.721313 
	C729.645325,704.363525 736.048889,695.933472 743.242554,688.186890 
	C744.047791,690.261536 744.924927,692.115601 744.933044,693.973511 
	C745.028687,715.958984 745.020935,737.945007 744.943481,759.930542 
	C744.937378,761.658386 744.207947,763.383728 743.814758,765.110229 
z"/>
<path fill="#BE8B6F" opacity="1.000000" stroke="none" 
	d="
M266.964996,194.987991 
	C266.308716,193.471634 265.083344,191.956833 265.079224,190.438721 
	C264.973969,151.506943 264.944427,112.574577 265.127869,73.643379 
	C265.138672,71.360031 267.047974,69.085640 268.224915,66.471420 
	C267.814880,66.141563 266.443420,65.038300 265.040558,63.584061 
	C271.796082,62.531384 278.583008,61.829689 285.720398,61.803261 
	C286.051392,105.173820 286.031952,147.869110 285.569946,190.642700 
	C279.073242,192.143326 273.019135,193.565659 266.964996,194.987991 
z"/>
<path fill="#935C37" opacity="1.000000" stroke="none" 
	d="
M105.824844,443.988495 
	C103.066055,444.238098 101.791283,443.025177 101.990700,440.218994 
	C102.084862,438.894165 102.000603,437.556763 102.000595,436.225067 
	C102.000252,382.457306 102.007416,328.689514 101.974068,274.921783 
	C101.972748,272.794312 101.586166,270.667145 101.097076,268.218109 
	C100.771080,265.613312 100.727119,263.330261 100.963058,260.309143 
	C101.494606,258.291351 101.956482,257.012970 101.964493,255.731720 
	C102.025864,245.915619 102.037262,236.098648 101.956924,226.282837 
	C101.945259,224.858429 101.362900,223.438705 101.044624,222.016815 
	C103.204941,214.855133 108.904648,211.599823 115.650482,209.545258 
	C116.004646,258.444458 115.966698,306.904388 116.100044,355.363831 
	C116.107147,357.946503 117.558998,360.525146 118.254242,363.478577 
	C117.044121,366.785370 115.660004,369.649139 114.840134,372.666229 
	C112.348068,381.836975 108.989281,390.948273 107.966209,400.301300 
	C106.383720,414.768677 106.454910,429.416931 105.824844,443.988495 
z"/>
<path fill="#A87453" opacity="1.000000" stroke="none" 
	d="
M185.034943,290.139221 
	C184.688751,287.184570 184.046371,284.230469 184.041229,281.275208 
	C183.973801,242.499847 184.013275,203.724258 183.952927,164.948853 
	C183.949417,162.698776 183.318970,160.449677 182.633011,157.873047 
	C188.917892,151.101227 195.550034,144.656464 202.757004,138.360352 
	C203.554535,140.452530 203.963043,142.395355 203.970322,144.339691 
	C204.024841,158.896927 203.914093,173.455551 204.098663,188.010635 
	C204.124542,190.051163 205.476456,192.074890 205.991638,194.392975 
	C201.007889,197.075333 201.011353,201.500549 202.116974,205.487503 
	C206.099670,219.849380 205.104813,234.488831 204.923859,249.046646 
	C204.716827,265.703308 199.717819,280.342865 185.034943,290.139221 
z"/>
<path fill="#9B6441" opacity="1.000000" stroke="none" 
	d="
M149.065063,195.002319 
	C149.831146,196.867416 150.919098,198.979050 150.925934,201.094208 
	C151.033249,234.296097 150.979309,267.498505 151.055359,300.700562 
	C151.059967,302.709625 151.843674,304.716888 152.489380,307.163818 
	C149.978043,311.102814 146.943802,314.413483 144.573532,318.145813 
	C140.637390,324.343903 137.127823,330.812927 133.108932,336.923096 
	C132.186432,334.173309 131.083939,331.669800 131.076660,329.163116 
	C130.956375,287.740631 130.973770,246.317719 130.960327,204.894913 
	C138.024429,203.704956 144.534256,201.484940 149.065063,195.002319 
z"/>
<path fill="#C6947A" opacity="1.000000" stroke="none" 
	d="
M286.012543,190.564407 
	C286.031952,147.869110 286.051392,105.173820 286.100861,61.974075 
	C292.138336,62.704205 298.145782,63.938778 304.580566,65.680138 
	C305.005707,104.881706 304.986298,143.576508 305.044800,182.271194 
	C305.048248,184.541992 305.680695,186.811859 305.791809,189.344330 
	C300.820251,193.015778 295.908630,194.321396 290.379822,191.287598 
	C289.159271,190.617874 287.480377,190.783447 286.012543,190.564407 
z"/>
<path fill="#DAAA94" opacity="1.000000" stroke="none" 
	d="
M559.661865,875.026978 
	C558.356384,872.589355 556.924194,870.210266 555.767883,867.703796 
	C551.349915,858.127747 543.420959,855.919739 534.444702,861.301270 
	C531.682861,862.957031 528.056152,863.170410 524.493286,863.531982 
	C524.441467,861.056824 524.960632,859.094604 524.965698,857.131042 
	C525.023254,834.804810 525.069702,812.477783 524.914490,790.152466 
	C524.895691,787.449463 523.675232,784.754700 523.292603,781.814514 
	C529.338013,780.772888 532.009766,782.852173 532.357727,788.418274 
	C532.481018,790.389832 532.574280,792.363220 532.702637,794.334412 
	C532.964844,798.360535 535.066040,800.488098 539.140930,799.949768 
	C545.749207,799.076965 552.326721,797.971375 559.179871,797.246948 
	C559.953064,799.268188 560.928040,801.012939 560.904053,802.743958 
	C560.570068,826.839417 560.099304,850.932983 559.661865,875.026978 
z"/>
<path fill="#A16B49" opacity="1.000000" stroke="none" 
	d="
M176.235657,660.437805 
	C175.491501,663.256897 174.121506,666.071472 174.101456,668.895691 
	C173.929993,693.044800 173.961456,717.195862 174.068375,741.345703 
	C174.078949,743.732239 174.998810,746.114685 175.778564,748.767822 
	C172.787369,750.934631 169.514267,752.832642 165.865097,754.948669 
	C164.557510,746.631653 158.488861,747.351807 152.424500,747.186768 
	C151.997177,709.546570 151.980789,671.988525 152.042770,634.430481 
	C152.046814,631.987488 152.653046,629.545593 153.409607,626.938721 
	C155.749771,629.851746 157.566498,632.991638 159.587082,635.994446 
	C165.090576,644.173218 170.680191,652.294006 176.235657,660.437805 
z"/>
<path fill="#905933" opacity="1.000000" stroke="none" 
	d="
M801.994629,323.824188 
	C802.329712,321.037842 802.952087,318.252045 802.957092,315.465088 
	C803.035950,271.544189 803.035400,227.623123 803.082031,183.212921 
	C803.777222,183.653320 804.609558,184.505493 805.084167,185.524307 
	C810.457397,197.057999 815.775818,208.617233 821.203491,220.530548 
	C820.532043,223.001999 819.103760,225.110626 819.097595,227.223419 
	C818.968262,271.431915 819.018433,315.640930 818.939575,359.849670 
	C818.936035,361.832062 818.049805,363.812836 816.950439,365.653839 
	C813.562134,355.137482 810.411316,344.842621 808.214539,334.348053 
	C807.268127,329.826721 806.300903,326.033478 801.994629,323.824188 
z"/>
<path fill="#905933" opacity="1.000000" stroke="none" 
	d="
M817.087769,539.005493 
	C817.725159,541.031799 818.913696,543.056763 818.918762,545.084656 
	C819.026001,588.108032 818.990479,631.131714 819.028625,674.155334 
	C819.030457,676.273132 819.448364,678.390503 819.965942,680.826416 
	C814.683533,687.267395 809.107666,693.390015 803.166748,699.255859 
	C802.534424,696.537781 802.038757,694.076965 802.034668,691.615295 
	C801.982361,659.854553 802.017822,628.093689 801.958984,596.333008 
	C801.955200,594.263123 803.075928,591.323975 799.374878,590.654297 
	C799.842041,588.695618 800.096680,587.049622 800.640015,585.505127 
	C806.095459,569.995728 811.598267,554.502930 817.087769,539.005493 
z"/>
<path fill="#DAAA94" opacity="1.000000" stroke="none" 
	d="
M359.062561,167.020782 
	C358.375458,165.022614 357.095642,163.026367 357.089172,161.025986 
	C356.970673,124.381256 357.004730,87.736031 357.007660,50.633545 
	C363.753967,47.825340 370.499054,45.474491 377.627441,43.624023 
	C378.008392,73.830070 377.953735,103.535980 378.093292,133.240982 
	C378.105743,135.897064 379.377502,138.547226 379.887756,141.506470 
	C374.804382,143.853561 369.653595,145.383713 367.150818,150.937347 
	C364.687500,156.403381 361.776917,161.667862 359.062561,167.020782 
z"/>
<path fill="#955E3A" opacity="1.000000" stroke="none" 
	d="
M130.548950,204.901184 
	C130.973770,246.317719 130.956375,287.740631 131.076660,329.163116 
	C131.083939,331.669800 132.186432,334.173309 132.981827,337.256348 
	C128.235657,346.258118 123.286964,354.681885 118.338272,363.105682 
	C117.558998,360.525146 116.107147,357.946503 116.100044,355.363831 
	C115.966698,306.904388 116.004646,258.444458 116.010185,209.519775 
	C120.721596,207.672440 125.429573,206.289948 130.548950,204.901184 
z"/>
<path fill="#CA9980" opacity="1.000000" stroke="none" 
	d="
M306.020447,189.082153 
	C305.680695,186.811859 305.048248,184.541992 305.044800,182.271194 
	C304.986298,143.576508 305.005707,104.881706 305.007507,65.736816 
	C310.427917,63.228958 315.848755,61.171211 321.637756,59.574368 
	C321.959320,103.801208 321.912811,147.567139 321.491455,191.221588 
	C316.084564,190.434128 311.052490,189.758133 306.020447,189.082153 
z"/>
<path fill="#D0A088" opacity="1.000000" stroke="none" 
	d="
M321.866272,191.333099 
	C321.912811,147.567139 321.959320,103.801208 322.006287,59.573914 
	C327.026184,57.687973 332.045685,56.263390 337.477783,54.771996 
	C337.594055,99.822426 337.279144,144.939560 337.026917,190.057053 
	C336.998413,195.159760 337.323517,200.264450 336.951416,205.492432 
	C333.495605,202.382843 330.671021,199.052338 327.612213,195.953094 
	C325.897186,194.215408 323.794342,192.860474 321.866272,191.333099 
z"/>
<path fill="#955E3A" opacity="1.000000" stroke="none" 
	d="
M799.296387,591.014099 
	C803.075928,591.323975 801.955200,594.263123 801.958984,596.333008 
	C802.017822,628.093689 801.982361,659.854553 802.034668,691.615295 
	C802.038757,694.076965 802.534424,696.537781 802.873291,699.395020 
	C796.597229,706.476624 790.249390,713.162354 783.313477,719.697998 
	C782.483582,717.605591 782.034729,715.663635 782.031250,713.720886 
	C781.984558,687.687866 782.038208,661.654541 781.920227,635.622009 
	C781.911743,633.749207 780.763550,631.881470 780.199402,629.667603 
	C786.601135,616.553955 792.948730,603.783997 799.296387,591.014099 
z"/>
<path fill="#E0B29D" opacity="1.000000" stroke="none" 
	d="
M380.064423,141.200134 
	C379.377502,138.547226 378.105743,135.897064 378.093292,133.240982 
	C377.953735,103.535980 378.008392,73.830070 378.010620,43.669449 
	C386.791473,42.259045 394.612854,39.059605 401.664490,33.714409 
	C402.008759,56.439331 402.038269,78.697678 401.958710,100.955643 
	C401.949371,103.573463 401.340118,106.189156 400.662354,108.905090 
	C399.224579,110.602501 397.804199,112.067764 397.096466,113.820740 
	C393.006561,123.950874 388.923828,134.049164 380.064423,141.200134 
z"/>
<path fill="#9B6441" opacity="1.000000" stroke="none" 
	d="
M781.858887,161.508820 
	C782.049194,193.251297 782.066162,224.727203 781.926636,256.202393 
	C781.914551,258.925842 780.868347,261.644684 779.881714,264.493042 
	C772.858887,254.001266 766.256714,243.382095 759.837524,232.330322 
	C760.346924,229.457794 760.949951,227.018707 760.957581,224.577728 
	C761.039490,198.344696 761.027405,172.111374 761.041138,145.878128 
	C763.200073,147.609085 765.303589,149.415237 767.529419,151.055405 
	C772.200195,154.497177 776.935303,157.851700 781.858887,161.508820 
z"/>
<path fill="#A16B49" opacity="1.000000" stroke="none" 
	d="
M760.865845,145.596161 
	C761.027405,172.111374 761.039490,198.344696 760.957581,224.577728 
	C760.949951,227.018707 760.346924,229.457794 759.587952,232.074768 
	C750.872986,222.491867 742.590454,212.731918 734.631714,202.828735 
	C735.636597,199.857483 736.901550,197.030350 736.905884,194.201324 
	C736.938904,172.467056 736.713867,150.732468 736.639954,128.997742 
	C736.637024,128.135956 737.348267,127.271759 737.726746,126.408676 
	C739.203125,127.782333 740.629822,129.214386 742.165161,130.518677 
	C746.673767,134.348862 751.195862,138.164566 755.776855,141.907349 
	C757.315552,143.164459 759.047119,144.185333 760.865845,145.596161 
z"/>
<path fill="#A87453" opacity="1.000000" stroke="none" 
	d="
M737.598633,126.259476 
	C737.348267,127.271759 736.637024,128.135956 736.639954,128.997742 
	C736.713867,150.732468 736.938904,172.467056 736.905884,194.201324 
	C736.901550,197.030350 735.636597,199.857483 734.390015,202.581223 
	C725.537292,194.322525 717.250183,186.168106 709.336426,177.876068 
	C710.139832,175.905945 710.937378,174.074768 710.944092,172.240677 
	C711.026489,149.885406 710.992676,127.529732 710.989014,105.174149 
	C716.744629,109.434021 722.562805,113.612862 728.227722,117.990074 
	C730.822144,119.994751 733.114990,122.389694 735.909302,125.055496 
	C736.505188,125.739166 736.775940,125.913437 737.086304,126.026154 
	C737.086304,126.026154 737.470459,126.110275 737.598633,126.259476 
z"/>
<path fill="#E0B29D" opacity="1.000000" stroke="none" 
	d="
M523.011658,782.056152 
	C523.675232,784.754700 524.895691,787.449463 524.914490,790.152466 
	C525.069702,812.477783 525.023254,834.804810 524.965698,857.131042 
	C524.960632,859.094604 524.441467,861.056824 524.076660,863.417480 
	C516.990234,864.131897 516.658813,865.811523 518.907776,872.403625 
	C520.330994,876.575195 519.678467,881.795654 518.767639,886.305420 
	C518.139648,889.414612 514.804260,890.539368 511.437653,889.469666 
	C505.674072,887.638367 501.688019,884.162109 501.196411,877.326477 
	C502.034149,874.841736 502.929993,872.870728 502.938324,870.895996 
	C503.036407,847.686768 502.967072,824.476868 503.046478,801.267578 
	C503.056000,798.488403 503.683105,795.711426 504.346741,793.088867 
	C506.560303,796.428406 509.636871,798.683044 512.845764,796.804260 
	C515.965942,794.977417 521.919067,794.208191 519.332703,787.530701 
	C518.878052,786.356934 521.701843,783.913330 523.011658,782.056152 
z"/>
<path fill="#E6B8A5" opacity="1.000000" stroke="none" 
	d="
M401.008972,108.805832 
	C401.340118,106.189156 401.949371,103.573463 401.958710,100.955643 
	C402.038269,78.697678 402.008759,56.439331 402.010742,33.730286 
	C410.396851,35.839764 418.734680,32.537308 427.557861,33.144909 
	C428.007660,50.782021 427.961670,68.342239 428.050812,85.901787 
	C428.063141,88.329422 428.744171,90.753670 429.195740,93.919403 
	C425.466278,98.992149 421.958771,103.644936 417.781769,107.588593 
	C410.016022,114.920471 409.853546,114.748367 401.008972,108.805832 
z"/>
<path fill="#CA9980" opacity="1.000000" stroke="none" 
	d="
M326.159821,778.478210 
	C325.773224,781.590454 325.062195,784.701416 325.050232,787.815063 
	C324.931396,818.732117 324.928101,849.649597 324.845703,881.072754 
	C319.594757,881.144714 319.247498,877.898804 320.212128,873.788513 
	C322.281158,864.972656 322.215393,864.964233 313.106598,863.840393 
	C311.547943,863.648010 310.063019,862.857910 307.518250,861.996704 
	C310.502106,860.674316 312.477661,859.798828 314.681305,858.822205 
	C313.741089,853.485046 311.772339,848.938965 307.651398,845.125183 
	C305.798981,843.410950 305.114990,840.384094 304.044067,837.891357 
	C303.204803,835.937927 302.585968,833.889893 302.058594,831.220703 
	C302.499023,828.786011 302.954071,827.015991 302.967255,825.242615 
	C303.038879,815.634460 302.870911,806.023193 303.038208,796.417419 
	C303.202057,787.008484 303.669037,777.604797 304.354309,768.242798 
	C311.857086,771.683899 319.008453,775.081055 326.159821,778.478210 
z"/>
<path fill="#BE8B6F" opacity="1.000000" stroke="none" 
	d="
M283.011780,820.861450 
	C272.527557,820.206421 264.549896,814.183350 256.227692,807.718811 
	C256.013062,785.493713 255.957275,764.001709 256.088348,742.510803 
	C256.099579,740.667053 257.351532,738.830872 258.337036,737.115479 
	C266.784119,743.758667 274.921204,750.277588 283.044525,757.277771 
	C283.024445,778.793152 283.018097,799.827332 283.011780,820.861450 
z"/>
<path fill="#E6B8A5" opacity="1.000000" stroke="none" 
	d="
M504.023926,792.933411 
	C503.683105,795.711426 503.056000,798.488403 503.046478,801.267578 
	C502.967072,824.476868 503.036407,847.686768 502.938324,870.895996 
	C502.929993,872.870728 502.034149,874.841736 501.161804,876.948120 
	C499.542633,876.607117 498.205597,875.553833 497.100403,875.757568 
	C492.305298,876.641785 487.577789,877.892639 482.408508,878.913696 
	C481.994507,852.784912 482.024597,826.752502 481.943420,800.720459 
	C481.937714,798.892151 481.109497,797.066528 480.440369,794.779907 
	C482.777405,788.782837 483.004639,788.748169 493.050690,792.647461 
	C493.973114,790.529480 494.904144,788.391663 496.482300,784.767944 
	C499.262787,787.778442 501.643372,790.355957 504.023926,792.933411 
z"/>
<path fill="#E6B8A5" opacity="1.000000" stroke="none" 
	d="
M479.302856,96.979668 
	C480.202087,93.959373 481.840790,90.948555 481.879608,87.917236 
	C482.117859,69.323509 481.994049,50.725147 481.990021,31.673599 
	C490.096710,32.674152 498.204193,34.129436 506.656372,36.257912 
	C507.000793,55.300678 506.941803,73.670692 507.080383,92.039207 
	C507.096344,94.150864 508.213989,96.254204 508.624207,98.655319 
	C499.876892,107.311539 494.253937,108.835716 486.688843,104.101654 
	C483.852112,102.326485 481.743469,99.387840 479.302856,96.979668 
z"/>
<path fill="#AF7B5C" opacity="1.000000" stroke="none" 
	d="
M710.632141,105.099579 
	C710.992676,127.529732 711.026489,149.885406 710.944092,172.240677 
	C710.937378,174.074768 710.139832,175.905945 709.022217,177.745132 
	C700.864441,172.589676 693.394287,167.427567 686.086365,161.862396 
	C686.498291,159.337265 686.958374,157.215836 686.965088,155.093002 
	C687.033569,133.353607 687.028381,111.613991 687.043823,89.874428 
	C693.566101,94.197487 700.082825,98.529015 706.615784,102.835831 
	C707.801392,103.617470 709.053711,104.297867 710.632141,105.099579 
z"/>
<path fill="#D0A088" opacity="1.000000" stroke="none" 
	d="
M559.769165,875.321106 
	C560.099304,850.932983 560.570068,826.839417 560.904053,802.743958 
	C560.928040,801.012939 559.953064,799.268188 559.415283,796.963501 
	C567.589355,794.252380 575.790588,792.107666 584.065918,790.376587 
	C584.427246,793.236816 584.948975,795.681763 584.964172,798.129944 
	C585.069702,815.171143 585.070190,832.213013 585.104309,849.254639 
	C583.998230,852.930603 581.208862,854.149048 577.694641,854.718323 
	C570.680847,855.854492 568.045410,860.159424 569.865906,867.131958 
	C570.237610,868.555420 570.570984,870.017029 571.174805,871.346252 
	C572.755676,874.825745 571.612122,877.863892 568.760315,879.514282 
	C565.985535,881.120117 562.983765,880.186951 561.085205,877.180298 
	C560.734863,876.625427 560.282043,876.135254 559.769165,875.321106 
z"/>
<path fill="#B78466" opacity="1.000000" stroke="none" 
	d="
M258.027100,736.991211 
	C257.351532,738.830872 256.099579,740.667053 256.088348,742.510803 
	C255.957275,764.001709 256.013062,785.493713 256.025299,807.448242 
	C248.122604,801.811279 240.214035,795.711426 232.224655,788.903442 
	C232.428574,785.747192 232.951202,783.300049 232.960236,780.851013 
	C233.029282,762.145569 232.956421,743.439575 233.049377,724.734314 
	C233.061432,722.308411 233.768555,719.885864 234.478577,717.616150 
	C242.544662,724.177368 250.285889,730.584290 258.027100,736.991211 
z"/>
<path fill="#DAAA94" opacity="1.000000" stroke="none" 
	d="
M531.991943,38.185539 
	C540.373596,39.218040 548.755188,40.250546 557.557007,41.858299 
	C557.983887,64.099762 558.038757,85.766266 557.911987,107.431694 
	C557.901123,109.288574 556.684326,111.138382 555.709351,112.881073 
	C550.008057,108.183716 544.722046,103.475403 539.197144,99.066269 
	C536.806580,97.158478 534.938171,95.653458 535.102844,92.009865 
	C535.178162,90.345100 532.449768,88.553604 531.076904,86.421196 
	C531.439758,83.728256 531.947510,81.434952 531.959961,79.138954 
	C532.034180,65.488159 531.993774,51.836746 531.991943,38.185539 
z"/>
<path fill="#9B6441" opacity="1.000000" stroke="none" 
	d="
M780.145325,630.011414 
	C780.763550,631.881470 781.911743,633.749207 781.920227,635.622009 
	C782.038208,661.654541 781.984558,687.687866 782.031250,713.720886 
	C782.034729,715.663635 782.483582,717.605591 783.030762,719.860901 
	C776.779236,727.068237 770.222229,733.962524 763.356689,740.526733 
	C763.364685,737.073669 763.942200,733.951904 763.955078,730.827698 
	C764.038025,710.717407 764.056274,690.606262 763.935669,670.496338 
	C763.917053,667.397583 763.074097,664.303711 762.738037,660.912292 
	C768.624207,650.415100 774.384766,640.213257 780.145325,630.011414 
z"/>
<path fill="#D3A38C" opacity="1.000000" stroke="none" 
	d="
M556.027710,112.991486 
	C556.684326,111.138382 557.901123,109.288574 557.911987,107.431694 
	C558.038757,85.766266 557.983887,64.099762 557.970825,42.002262 
	C560.389954,41.733829 562.904846,41.546665 565.220337,42.139103 
	C568.975464,43.099888 572.599731,44.571899 576.643677,46.405006 
	C577.337952,51.776379 577.924194,56.569313 577.952332,61.365532 
	C578.062927,80.184532 578.104431,99.005676 577.906799,117.823250 
	C577.867554,121.562683 576.661255,125.289864 575.658813,128.937592 
	C568.892212,123.565483 562.459961,118.278488 556.027710,112.991486 
z"/>
<path fill="#C6947A" opacity="1.000000" stroke="none" 
	d="
M628.682739,61.932838 
	C628.993530,85.811378 629.019714,109.496902 628.963257,133.182220 
	C628.957825,135.465317 628.439575,137.747208 627.690491,140.486450 
	C620.812500,141.236923 614.403320,141.530594 608.079590,141.457306 
	C608.775818,138.567352 609.905396,136.046844 609.917664,133.520935 
	C610.046082,107.071800 609.995483,80.621788 609.994446,54.172028 
	C616.121399,56.694611 622.248291,59.217186 628.682739,61.932838 
z"/>
<path fill="#E6B8A5" opacity="1.000000" stroke="none" 
	d="
M429.051056,790.229370 
	C429.034424,811.036499 428.997070,831.843628 429.037689,852.650635 
	C429.041199,854.446045 429.560547,856.240417 429.924042,858.434448 
	C422.629730,859.899597 415.251678,860.965515 407.453094,861.632690 
	C407.021790,839.143066 406.981567,817.052124 407.044220,794.961487 
	C407.050690,792.676208 407.669464,790.392700 408.411011,788.079712 
	C413.154083,789.032715 417.454010,790.269775 421.841156,790.892456 
	C424.166260,791.222412 426.642853,790.484985 429.051056,790.229370 
z"/>
<path fill="#A16B49" opacity="1.000000" stroke="none" 
	d="
M762.612305,661.207581 
	C763.074097,664.303711 763.917053,667.397583 763.935669,670.496338 
	C764.056274,690.606262 764.038025,710.717407 763.955078,730.827698 
	C763.942200,733.951904 763.364685,737.073669 763.030823,740.620789 
	C759.083130,745.801025 755.001526,750.446045 751.357056,755.411743 
	C750.672729,756.344177 752.054077,758.585999 751.913269,760.173157 
	C751.711792,762.443970 751.612854,765.274597 750.248718,766.684082 
	C749.437195,767.522766 746.283875,766.095093 743.999084,765.398315 
	C744.207947,763.383728 744.937378,761.658386 744.943481,759.930542 
	C745.020935,737.945007 745.028687,715.958984 744.933044,693.973511 
	C744.924927,692.115601 744.047791,690.261536 743.340088,687.858521 
	C749.607910,678.610107 756.110107,669.908813 762.612305,661.207581 
z"/>
<path fill="#B78466" opacity="1.000000" stroke="none" 
	d="
M686.797729,89.620110 
	C687.028381,111.613991 687.033569,133.353607 686.965088,155.093002 
	C686.958374,157.215836 686.498291,159.337265 685.751831,161.745453 
	C678.487793,158.077332 671.720459,154.123093 664.953247,150.168854 
	C665.300537,147.893311 665.939453,145.619003 665.949219,143.341995 
	C666.030151,124.364761 665.961853,105.386871 666.042603,86.409630 
	C666.051453,84.334549 666.715820,82.262268 667.448120,79.907677 
	C674.063904,82.873039 680.307800,86.119415 686.797729,89.620110 
z"/>
<path fill="#B78466" opacity="1.000000" stroke="none" 
	d="
M680.979858,801.746704 
	C678.259094,804.536865 673.939392,806.040405 674.290649,811.322632 
	C674.347229,812.173157 670.499207,813.886353 668.330872,814.143250 
	C664.915833,814.547668 661.394531,814.054932 657.455933,813.424805 
	C656.995789,797.879150 657.048157,782.850464 656.949158,767.822693 
	C656.933167,765.402344 656.243042,762.986389 656.073975,760.320435 
	C664.171326,754.984436 672.059326,749.896423 680.024902,745.231934 
	C680.402283,747.773804 680.953613,749.891174 680.961914,752.010742 
	C681.026611,768.589172 680.987122,785.167969 680.979858,801.746704 
z"/>
<path fill="#AF7B5C" opacity="1.000000" stroke="none" 
	d="
M234.153748,717.461792 
	C233.768555,719.885864 233.061432,722.308411 233.049377,724.734314 
	C232.956421,743.439575 233.029282,762.145569 232.960236,780.851013 
	C232.951202,783.300049 232.428574,785.747192 232.068756,788.607849 
	C226.999496,784.452576 222.024521,779.863403 216.999222,775.330017 
	C215.524948,774.000122 213.907684,772.828674 212.173157,771.305908 
	C212.325073,768.242676 212.935776,765.459473 212.949600,762.673340 
	C213.037766,744.898804 212.973434,727.123474 213.024551,709.348572 
	C213.030167,707.397400 213.450378,705.447449 214.283997,703.293030 
	C221.311050,707.880005 227.732407,712.670898 234.153748,717.461792 
z"/>
<path fill="#E0B29D" opacity="1.000000" stroke="none" 
	d="
M408.004089,788.108276 
	C407.669464,790.392700 407.050690,792.676208 407.044220,794.961487 
	C406.981567,817.052124 407.021790,839.143066 407.047974,861.714905 
	C406.725677,862.542847 406.415955,862.923157 406.046265,863.231628 
	C398.304321,869.691345 398.303040,869.689819 394.678528,860.478516 
	C392.598450,860.478516 390.571014,860.478516 388.272919,859.744690 
	C388.000702,838.645996 387.963165,818.280945 388.042114,797.916382 
	C388.052246,795.307068 388.668427,792.700073 389.465332,790.089661 
	C394.590118,790.519714 399.213654,791.273254 403.430115,787.994568 
	C404.361847,787.269958 406.449005,788.031250 408.004089,788.108276 
z"/>
<path fill="#CA9980" opacity="1.000000" stroke="none" 
	d="
M609.580566,54.094879 
	C609.995483,80.621788 610.046082,107.071800 609.917664,133.520935 
	C609.905396,136.046844 608.775818,138.567352 607.672058,141.524719 
	C602.409729,140.448990 597.640320,138.938919 592.914673,136.981461 
	C593.304871,133.073105 593.940063,129.613083 593.951416,126.151009 
	C594.034241,100.829086 593.991943,75.506752 593.989197,50.184544 
	C599.048401,51.462269 604.107544,52.739998 609.580566,54.094879 
z"/>
<path fill="#D0A088" opacity="1.000000" stroke="none" 
	d="
M593.687073,49.944618 
	C593.991943,75.506752 594.034241,100.829086 593.951416,126.151009 
	C593.940063,129.613083 593.304871,133.073105 592.555298,136.870163 
	C586.765747,134.478409 581.379395,131.750565 575.993103,129.022705 
	C576.661255,125.289864 577.867554,121.562683 577.906799,117.823250 
	C578.104431,99.005676 578.062927,80.184532 577.952332,61.365532 
	C577.924194,56.569313 577.337952,51.776379 577.001953,46.563969 
	C582.458862,47.332230 587.921875,48.518459 593.687073,49.944618 
z"/>
<path fill="#AF7B5C" opacity="1.000000" stroke="none" 
	d="
M206.214554,194.106384 
	C205.476456,192.074890 204.124542,190.051163 204.098663,188.010635 
	C203.914093,173.455551 204.024841,158.896927 203.970322,144.339691 
	C203.963043,142.395355 203.554535,140.452530 203.039261,138.194702 
	C206.948486,133.799759 211.154388,129.723343 215.350418,125.636787 
	C217.586563,123.459000 219.805679,121.263718 222.325745,118.941887 
	C223.080765,120.822548 223.935654,122.836014 223.944092,124.853012 
	C224.040283,147.875900 224.007446,170.899307 223.590454,194.431000 
	C217.519424,194.661728 211.866989,194.384064 206.214554,194.106384 
z"/>
<path fill="#E0B29D" opacity="1.000000" stroke="none" 
	d="
M531.571045,38.107399 
	C531.993774,51.836746 532.034180,65.488159 531.959961,79.138954 
	C531.947510,81.434952 531.439758,83.728256 530.647949,86.478912 
	C525.155090,86.566978 520.745728,87.863831 516.987549,91.269394 
	C514.316467,93.689850 511.546631,96.001312 508.820862,98.361404 
	C508.213989,96.254204 507.096344,94.150864 507.080383,92.039207 
	C506.941803,73.670692 507.000793,55.300678 507.001770,36.461990 
	C515.051697,36.671669 523.100952,37.350464 531.571045,38.107399 
z"/>
<path fill="#AF7B5C" opacity="1.000000" stroke="none" 
	d="
M681.285767,801.626465 
	C680.987122,785.167969 681.026611,768.589172 680.961914,752.010742 
	C680.953613,749.891174 680.402283,747.773804 680.183960,744.945312 
	C687.174255,739.141357 694.083130,734.047424 700.992004,728.953491 
	C701.329590,731.051147 701.950745,733.147522 701.959961,735.246582 
	C702.035522,752.466370 701.997253,769.686584 701.991394,787.363281 
	C695.190125,792.381958 688.390930,796.944092 681.285767,801.626465 
z"/>
<path fill="#CA9980" opacity="1.000000" stroke="none" 
	d="
M585.404175,849.086731 
	C585.070190,832.213013 585.069702,815.171143 584.964172,798.129944 
	C584.948975,795.681763 584.427246,793.236816 584.382568,790.098511 
	C586.433289,789.270081 588.247925,789.191467 590.048096,788.985962 
	C595.684082,788.342773 601.314636,787.651672 607.229980,787.245117 
	C608.009277,789.714966 608.913757,791.914734 608.935547,794.123230 
	C609.066162,807.366394 608.993774,820.611572 608.989502,833.856079 
	C601.227661,838.877075 593.465820,843.897949 585.404175,849.086731 
z"/>
<path fill="#C6947A" opacity="1.000000" stroke="none" 
	d="
M283.356049,821.075500 
	C283.018097,799.827332 283.024445,778.793152 283.395996,757.383179 
	C290.508453,760.737854 297.255707,764.468323 304.002930,768.198853 
	C303.669037,777.604797 303.202057,787.008484 303.038208,796.417419 
	C302.870911,806.023193 303.038879,815.634460 302.967255,825.242615 
	C302.954071,827.015991 302.499023,828.786011 301.936371,830.862915 
	C297.941101,823.718262 291.000763,822.177246 283.356049,821.075500 
z"/>
<path fill="#C29075" opacity="1.000000" stroke="none" 
	d="
M609.370850,833.871094 
	C608.993774,820.611572 609.066162,807.366394 608.935547,794.123230 
	C608.913757,791.914734 608.009277,789.714966 607.421814,786.951599 
	C615.883057,782.576965 624.435181,778.761963 633.061401,775.361694 
	C633.423706,778.064636 633.941101,780.350708 633.962402,782.641418 
	C634.092346,796.581909 634.109314,810.523438 634.163940,824.464661 
	C626.026733,827.605164 617.889526,830.745667 609.370850,833.871094 
z"/>
<path fill="#DAAA94" opacity="1.000000" stroke="none" 
	d="
M389.003876,790.092041 
	C388.668427,792.700073 388.052246,795.307068 388.042114,797.916382 
	C387.963165,818.280945 388.000702,838.645996 388.003418,859.475708 
	C385.340515,857.842957 381.423126,856.271484 380.275391,853.537354 
	C377.948334,847.993774 374.025238,846.332092 368.398254,845.391479 
	C368.004791,828.638245 367.908508,812.438171 368.105316,796.241577 
	C368.131409,794.092468 369.647430,791.961487 370.708313,790.119751 
	C375.825592,793.910156 379.886414,792.569153 383.592773,785.896912 
	C385.436523,787.326355 387.220184,788.709167 389.003876,790.092041 
z"/>
<path fill="#D3A38C" opacity="1.000000" stroke="none" 
	d="
M370.473450,789.822083 
	C369.647430,791.961487 368.131409,794.092468 368.105316,796.241577 
	C367.908508,812.438171 368.004791,828.638245 368.011475,845.289368 
	C362.953247,844.384644 357.893066,843.027832 351.933167,841.429749 
	C354.172028,845.088257 356.016724,847.833801 357.586761,850.728394 
	C360.247345,855.633484 359.467194,856.999878 353.884552,857.675232 
	C352.899200,857.794373 351.906921,857.856018 350.513367,857.996704 
	C349.406464,856.092407 348.108582,854.140137 348.093597,852.178162 
	C347.942505,832.389771 347.981903,812.599670 348.037811,792.810303 
	C348.042419,791.182251 348.560577,789.555725 349.313232,787.520630 
	C352.797394,787.741272 355.783691,788.568787 358.825836,788.948303 
	C362.684631,789.429749 366.588837,789.547546 370.473450,789.822083 
z"/>
<path fill="#BE8B6F" opacity="1.000000" stroke="none" 
	d="
M634.498230,824.335327 
	C634.109314,810.523438 634.092346,796.581909 633.962402,782.641418 
	C633.941101,780.350708 633.423706,778.064636 633.256714,775.079773 
	C640.873413,769.778198 648.368958,765.173340 655.864502,760.568420 
	C656.243042,762.986389 656.933167,765.402344 656.949158,767.822693 
	C657.048157,782.850464 656.995789,797.879150 656.991028,813.364563 
	C649.603027,817.283081 642.217773,820.744568 634.498230,824.335327 
z"/>
<path fill="#8D552F" opacity="1.000000" stroke="none" 
	d="
M100.795677,222.268341 
	C101.362900,223.438705 101.945259,224.858429 101.956924,226.282837 
	C102.037262,236.098648 102.025864,245.915619 101.964493,255.731720 
	C101.956482,257.012970 101.494606,258.291351 100.923637,259.881470 
	C99.028709,253.189560 97.352531,246.207932 95.907433,239.178787 
	C94.615555,232.894928 98.428055,227.917358 100.795677,222.268341 
z"/>
<path fill="#A16B49" opacity="1.000000" stroke="none" 
	d="
M736.968994,125.798256 
	C736.775940,125.913437 736.505188,125.739166 736.124023,125.312988 
	C736.266541,125.271881 736.559143,125.421120 736.968994,125.798256 
z"/>
<path fill="#000000" opacity="1.000000" stroke="none" 
	d="
M656.073975,760.320435 
	C648.368958,765.173340 640.873413,769.778198 633.182617,774.665039 
	C624.435181,778.761963 615.883057,782.576965 607.139099,786.685547 
	C601.314636,787.651672 595.684082,788.342773 590.048096,788.985962 
	C588.247925,789.191467 586.433289,789.270081 584.308594,789.684814 
	C575.790588,792.107666 567.589355,794.252380 559.152588,796.680603 
	C552.326721,797.971375 545.749207,799.076965 539.140930,799.949768 
	C535.066040,800.488098 532.964844,798.360535 532.702637,794.334412 
	C532.574280,792.363220 532.481018,790.389832 532.357727,788.418274 
	C532.009766,782.852173 529.338013,780.772888 523.292603,781.814514 
	C521.701843,783.913330 518.878052,786.356934 519.332703,787.530701 
	C521.919067,794.208191 515.965942,794.977417 512.845764,796.804260 
	C509.636871,798.683044 506.560303,796.428406 504.346741,793.088867 
	C501.643372,790.355957 499.262787,787.778442 496.482300,784.767944 
	C494.904144,788.391663 493.973114,790.529480 493.050690,792.647461 
	C483.004639,788.748169 482.777405,788.782837 480.063232,794.641602 
	C479.261749,793.977051 478.596863,793.001953 477.969971,792.002991 
	C476.812561,790.158569 476.060242,787.500977 474.407654,786.709351 
	C473.163483,786.113342 470.805298,787.990479 468.891876,788.608398 
	C466.233002,789.466919 463.380219,791.145691 460.867920,790.766663 
	C453.817688,789.702881 447.134857,786.095032 439.632904,788.307434 
	C438.569855,788.620972 437.048615,787.197754 435.889526,787.407532 
	C433.660309,787.811035 431.538574,788.808167 429.211670,789.894287 
	C426.642853,790.484985 424.166260,791.222412 421.841156,790.892456 
	C417.454010,790.269775 413.154083,789.032715 408.411011,788.079651 
	C406.449005,788.031250 404.361847,787.269958 403.430115,787.994568 
	C399.213654,791.273254 394.590118,790.519714 389.465332,790.089661 
	C387.220184,788.709167 385.436523,787.326355 383.592773,785.896912 
	C379.886414,792.569153 375.825592,793.910156 370.708313,790.119751 
	C366.588837,789.547546 362.684631,789.429749 358.825836,788.948303 
	C355.783691,788.568787 352.797394,787.741272 349.393768,787.118164 
	C341.587219,784.410034 334.173218,781.696594 326.459534,778.730652 
	C319.008453,775.081055 311.857086,771.683899 304.354309,768.242798 
	C297.255707,764.468323 290.508453,760.737854 283.409729,756.901917 
	C274.921204,750.277588 266.784119,743.758667 258.337067,737.115479 
	C250.285889,730.584290 242.544662,724.177368 234.478607,717.616150 
	C227.732407,712.670898 221.311050,707.880005 214.577255,702.979126 
	C199.896774,693.041199 191.291580,677.784729 179.325882,665.689392 
	C178.111862,664.462219 177.581863,662.558350 176.485031,660.703186 
	C170.680191,652.294006 165.090576,644.173218 159.587082,635.994446 
	C157.566498,632.991638 155.749771,629.851746 153.591919,626.506042 
	C145.593384,610.725769 137.842957,595.213806 129.952271,579.358765 
	C125.123184,564.185303 120.157028,549.434387 115.870293,534.488708 
	C113.920418,527.690491 113.764488,520.391907 112.008560,513.521179 
	C107.977692,497.748810 108.637115,481.618774 107.606300,465.610809 
	C107.204498,459.371033 106.508148,453.150177 105.888687,446.465698 
	C105.870018,445.559998 105.908615,445.109344 105.886032,444.323578 
	C106.454910,429.416931 106.383720,414.768677 107.966209,400.301300 
	C108.989281,390.948273 112.348068,381.836975 114.840134,372.666229 
	C115.660004,369.649139 117.044121,366.785370 118.254242,363.478577 
	C123.286964,354.681885 128.235657,346.258118 133.311462,337.501099 
	C137.127823,330.812927 140.637390,324.343903 144.573532,318.145813 
	C146.943802,314.413483 149.978043,311.102814 152.860107,307.302185 
	C157.081894,304.674622 161.071716,302.178314 165.252945,300.059784 
	C171.665451,296.810791 178.209671,293.821747 184.866455,290.430786 
	C199.717819,280.342865 204.716827,265.703308 204.923859,249.046646 
	C205.104813,234.488831 206.099670,219.849380 202.116974,205.487503 
	C201.011353,201.500549 201.007889,197.075333 205.991638,194.392975 
	C211.866989,194.384064 217.519424,194.661728 223.592377,194.889618 
	C238.108551,197.750336 252.247208,198.065811 266.698944,195.265228 
	C273.019135,193.565659 279.073242,192.143326 285.569946,190.642700 
	C287.480377,190.783447 289.159271,190.617874 290.379822,191.287598 
	C295.908630,194.321396 300.820251,193.015778 305.791809,189.344330 
	C311.052490,189.758133 316.084564,190.434128 321.491455,191.221603 
	C323.794342,192.860474 325.897186,194.215408 327.612213,195.953094 
	C330.671021,199.052338 333.495605,202.382843 336.701965,205.810074 
	C340.836700,216.133224 350.774170,223.640915 359.511902,223.021835 
	C366.415497,222.532700 370.786346,219.154800 372.616302,212.609863 
	C375.063385,203.857773 377.401276,195.074554 379.702881,186.282913 
	C380.109955,184.727905 380.110321,183.066422 380.361053,180.918427 
	C374.878967,181.349762 372.988953,184.977707 372.092224,188.950531 
	C370.746948,194.910416 370.118164,201.028137 368.954071,207.034042 
	C368.111450,211.381332 366.894623,215.656082 365.647980,220.770065 
	C359.147003,217.377289 352.184387,216.192078 350.531586,207.709290 
	C349.731201,203.601440 346.975769,199.914764 345.641479,195.860977 
	C343.778442,190.200729 344.548126,188.892456 349.962463,187.257843 
	C354.107300,186.006500 356.144989,183.964813 356.041168,179.080078 
	C355.961578,175.337830 357.947144,171.551666 359.038391,167.402908 
	C361.776917,161.667862 364.687500,156.403381 367.150818,150.937347 
	C369.653595,145.383713 374.804382,143.853561 379.887756,141.506470 
	C388.923828,134.049164 393.006561,123.950874 397.096466,113.820740 
	C397.804199,112.067764 399.224579,110.602501 400.662354,108.905090 
	C409.853546,114.748367 410.016022,114.920471 417.781769,107.588593 
	C421.958771,103.644936 425.466278,98.992149 429.389404,94.371574 
	C433.768097,87.279480 439.765991,83.756592 447.943817,83.616798 
	C452.193939,83.544144 456.419800,82.210617 460.672729,82.106697 
	C466.655792,81.960495 471.560242,84.064606 474.247772,90.069153 
	C475.304199,92.429413 477.224121,94.403183 479.026855,96.766312 
	C481.743469,99.387840 483.852112,102.326485 486.688843,104.101654 
	C494.253937,108.835716 499.876892,107.311539 508.624207,98.655327 
	C511.546631,96.001312 514.316467,93.689850 516.987549,91.269394 
	C520.745728,87.863831 525.155090,86.566978 530.564026,86.877304 
	C532.449768,88.553604 535.178162,90.345100 535.102844,92.009865 
	C534.938171,95.653458 536.806580,97.158478 539.197144,99.066269 
	C544.722046,103.475403 550.008057,108.183716 555.709351,112.881088 
	C562.459961,118.278488 568.892212,123.565483 575.658813,128.937592 
	C581.379395,131.750565 586.765747,134.478409 592.511475,137.317551 
	C597.640320,138.938919 602.409729,140.448990 607.586670,141.891663 
	C614.403320,141.530594 620.812500,141.236923 627.605164,140.885117 
	C640.395508,142.597244 652.977173,143.681137 664.582153,150.111938 
	C671.720459,154.123093 678.487793,158.077332 685.589600,162.148499 
	C693.394287,167.427567 700.864441,172.589676 708.648865,177.882751 
	C717.250183,186.168106 725.537292,194.322525 734.066162,202.724457 
	C742.590454,212.731918 750.872986,222.491867 759.405029,232.507355 
	C766.256714,243.382095 772.858887,254.001266 779.718750,264.846741 
	C782.597656,269.622894 781.839661,274.052643 780.273315,278.858093 
	C778.645081,283.853424 777.788635,289.152802 777.083679,294.385101 
	C775.789673,303.989655 780.078125,311.221558 787.816711,316.393738 
	C792.055908,319.227051 796.777283,321.338837 801.637939,323.800079 
	C806.300903,326.033478 807.268127,329.826721 808.214539,334.348053 
	C810.411316,344.842621 813.562134,355.137482 816.563721,365.783813 
	C822.235901,385.673126 827.147400,405.346741 827.135132,425.948334 
	C827.130737,433.363617 828.783875,440.770752 828.935486,448.196838 
	C829.525635,477.096100 825.946655,505.493073 817.887695,533.292725 
	C817.430603,534.869507 817.304993,536.542480 817.056396,538.588074 
	C811.598267,554.502930 806.095459,569.995728 800.640015,585.505127 
	C800.096680,587.049622 799.842041,588.695618 799.374878,590.654297 
	C792.948730,603.783997 786.601135,616.553955 780.199402,629.667603 
	C774.384766,640.213257 768.624207,650.415100 762.737976,660.912292 
	C756.110107,669.908813 749.607910,678.610107 743.008179,687.639771 
	C736.048889,695.933472 729.645325,704.363525 722.184387,711.721313 
	C715.887634,717.931030 708.363892,722.896606 701.187622,728.683167 
	C694.083130,734.047424 687.174255,739.141357 680.106323,744.521851 
	C672.059326,749.896423 664.171326,754.984436 656.073975,760.320435 
M401.253845,238.114471 
	C394.503845,240.756012 387.753876,243.397552 380.271820,246.042145 
	C373.505554,249.333557 366.739288,252.624985 359.260071,256.009827 
	C352.500549,259.987061 345.740997,263.964294 338.294220,268.069061 
	C333.181427,271.669739 328.068634,275.270447 322.293365,279.056854 
	C317.164093,283.293335 312.034821,287.529816 306.265106,292.005737 
	C300.835114,297.315247 295.405121,302.624786 289.364166,308.217621 
	C283.871399,315.049011 278.378632,321.880371 272.297913,329.073639 
	C266.680664,339.019958 260.529785,348.710114 255.597672,358.985291 
	C250.754059,369.076111 248.485184,380.026154 249.116684,391.377930 
	C250.001114,407.276367 258.333710,417.142120 273.612701,419.826691 
	C279.742310,419.513641 285.871918,419.200562 292.741455,418.919464 
	C297.921265,415.811371 303.101044,412.703278 308.874176,409.239014 
	C313.998077,402.381714 319.121979,395.524414 324.800934,388.189392 
	C330.576569,377.140594 336.352173,366.091797 342.681793,354.659851 
	C349.150330,345.116730 355.618866,335.573639 362.679932,325.701904 
	C369.193146,319.171844 375.706390,312.641785 382.863800,305.913666 
	C390.283508,301.296204 397.703217,296.678711 405.848450,292.007172 
	C413.266144,289.124634 420.683838,286.242065 428.905029,283.255096 
	C430.512878,282.833679 432.098114,282.265717 433.732086,282.013702 
	C448.831299,279.684845 463.938934,277.410522 479.957031,275.320343 
	C485.970276,275.198456 491.983551,275.076599 498.803070,275.174194 
	C507.696930,276.555725 516.590759,277.937256 526.056458,279.794281 
	C535.629761,284.560181 545.203125,289.326080 555.113342,294.685394 
	C567.316528,303.788513 575.886780,315.832367 582.998230,329.821655 
	C593.428345,355.000397 597.286011,380.511505 586.347229,407.196045 
	C580.837219,414.773071 575.327209,422.350067 569.205322,430.174469 
	C563.114807,435.061340 557.024353,439.948212 550.247620,445.005005 
	C542.077087,449.290100 533.906616,453.575195 525.005310,457.934814 
	C516.599731,460.727478 508.194153,463.520142 498.963409,466.371613 
	C490.641449,468.258606 482.319519,470.145569 473.159576,471.946228 
	C465.238159,472.891205 457.316772,473.836182 449.987762,474.710480 
	C456.229279,460.499054 462.908752,446.725769 468.348602,432.479156 
	C473.263794,419.606628 477.226227,406.276978 476.115112,392.141663 
	C475.339203,382.271057 469.270203,376.866760 459.311462,376.915833 
	C444.721832,376.987701 434.550507,384.989777 425.206055,395.907074 
	C418.734131,406.124390 412.262207,416.341705 405.226593,426.992188 
	C398.103821,440.307068 390.981049,453.621948 383.292786,467.319122 
	C376.401764,480.174286 369.510712,493.029449 362.126465,506.323486 
	C356.325287,517.180725 350.524109,528.038025 344.198090,539.312561 
	C339.114716,548.868896 334.031372,558.425232 328.398682,568.393066 
	C322.864410,578.776062 317.330139,589.159119 311.238556,599.988037 
	C305.440979,610.852966 299.643433,621.717896 293.287415,633.026855 
	C288.724884,641.491577 284.007355,649.877258 279.639252,658.441223 
	C274.206787,669.091980 271.071716,680.316406 271.962494,692.458496 
	C273.043213,707.189697 281.283478,717.366150 295.816803,720.958252 
	C301.881073,720.887390 307.945312,720.816528 314.720245,720.718445 
	C320.455231,717.136780 326.190186,713.555176 332.554321,709.731201 
	C338.012299,703.479370 343.470306,697.227539 349.507904,690.583435 
	C350.482605,689.084351 351.491760,687.606445 352.426239,686.082703 
	C357.316681,678.108704 362.188110,670.123108 367.619324,661.715759 
	C374.375000,647.474731 381.130676,633.233704 388.334778,618.409119 
	C389.000641,616.388855 389.528412,614.310181 390.354340,612.357605 
	C396.474701,597.888000 402.654388,583.443420 409.194153,568.357544 
	C414.176697,556.310242 419.127045,544.249329 424.180145,532.231689 
	C424.858643,530.617981 426.055817,529.222351 427.848328,527.947754 
	C443.549805,528.363342 459.251282,528.778992 475.763245,529.409302 
	C483.852234,528.637329 491.941193,527.865356 500.898254,527.217590 
	C509.937988,525.545532 518.977722,523.873474 528.849670,522.237244 
	C536.561340,520.064758 544.273010,517.892273 552.705750,515.655212 
	C559.136841,513.102478 565.567871,510.549713 572.730591,507.967377 
	C578.151611,505.273712 583.572693,502.580048 589.684753,499.806335 
	C594.822449,496.620178 599.960083,493.434021 605.774475,490.065460 
	C610.891052,486.151276 616.007629,482.237091 621.763977,478.068878 
	C626.832581,473.016571 631.901184,467.964294 637.572144,462.632172 
	C643.375488,454.419495 649.178894,446.206818 655.503357,437.546570 
	C657.729309,432.912140 660.216309,428.383118 662.137634,423.625671 
	C672.299805,398.462341 672.798279,372.444397 668.433716,346.106537 
	C666.143799,332.288025 662.336548,318.910339 655.035095,306.018066 
	C649.076416,297.190063 643.117737,288.362061 636.934265,278.930817 
	C631.604736,273.678497 626.275269,268.426178 620.569519,262.612976 
	C615.701660,259.079895 610.833862,255.546783 605.543213,251.457565 
	C598.692566,247.724701 591.841980,243.991837 584.360718,239.890320 
	C575.236572,236.644333 566.112427,233.398346 556.291138,229.841461 
	C546.857971,227.956009 537.424866,226.070557 527.178040,223.984543 
	C517.116699,223.375763 507.055420,222.766983 496.070282,222.033524 
	C490.380798,222.336960 484.691345,222.640396 478.097198,222.791031 
	C473.026459,223.194824 467.890533,223.219650 462.898071,224.078445 
	C451.196899,226.091248 439.564392,228.503479 427.080414,230.750046 
	C418.722290,233.209122 410.364136,235.668198 401.253845,238.114471 
z"/>
<path fill="#EDC0AE" opacity="1.000000" stroke="none" 
	d="
M425.809814,395.565155 
	C434.550507,384.989777 444.721832,376.987701 459.311462,376.915833 
	C469.270203,376.866760 475.339203,382.271057 476.115112,392.141663 
	C477.226227,406.276978 473.263794,419.606628 468.348602,432.479156 
	C462.908752,446.725769 456.229279,460.499054 449.987762,474.710480 
	C457.316772,473.836182 465.238159,472.891205 473.656036,472.398071 
	C474.436462,474.812714 474.960968,476.774811 474.966644,478.738403 
	C475.015289,495.556976 474.969971,512.375854 474.952759,529.194641 
	C459.251282,528.778992 443.549805,528.363342 427.431274,527.385559 
	C427.009857,485.670593 427.027069,444.517761 426.950165,403.365112 
	C426.945282,400.764435 426.206940,398.165100 425.809814,395.565155 
z"/>
<path fill="#CA9980" opacity="1.000000" stroke="none" 
	d="
M605.097778,490.247894 
	C599.960083,493.434021 594.822449,496.620178 589.339111,499.385132 
	C588.995544,470.506134 589.046021,442.048065 588.908447,413.590942 
	C588.897400,411.305267 587.591858,409.025818 586.887939,406.743469 
	C597.286011,380.511505 593.428345,355.000397 583.143311,329.099396 
	C583.859558,325.657318 584.914429,322.939697 584.926758,320.217346 
	C585.047607,293.565002 584.994812,266.911896 584.991333,240.258987 
	C591.841980,243.991837 598.692566,247.724701 605.510132,252.068314 
	C605.317993,254.485992 605.025330,256.292572 605.020996,258.099915 
	C604.984192,273.410065 604.993652,288.720306 605.001038,304.030548 
	C605.030945,366.102997 605.065125,428.175446 605.097778,490.247894 
z"/>
<path fill="#C6947A" opacity="1.000000" stroke="none" 
	d="
M605.436096,490.156677 
	C605.065125,428.175446 605.030945,366.102997 605.001038,304.030548 
	C604.993652,288.720306 604.984192,273.410065 605.020996,258.099915 
	C605.025330,256.292572 605.317993,254.485992 605.721558,252.346375 
	C610.833862,255.546783 615.701660,259.079895 620.769531,263.350647 
	C620.979675,302.707581 620.977173,341.326874 621.003784,379.946136 
	C621.026367,412.738373 621.082703,445.530640 621.124146,478.322876 
	C616.007629,482.237091 610.891052,486.151276 605.436096,490.156677 
z"/>
<path fill="#DAAA94" opacity="1.000000" stroke="none" 
	d="
M362.619690,505.884613 
	C369.510712,493.029449 376.401764,480.174286 383.870361,467.388977 
	C384.964844,469.999634 385.927582,472.539520 385.932587,475.081299 
	C386.023407,521.015076 385.974609,566.949219 386.078766,612.882935 
	C386.083374,614.920837 387.257111,616.956116 387.886292,618.992615 
	C381.130676,633.233704 374.375000,647.474731 367.098022,661.615784 
	C366.050415,659.676880 365.099152,657.844910 365.069122,655.997925 
	C364.914948,646.511841 364.997589,637.021912 364.997559,627.533325 
	C364.997467,589.079590 365.034698,550.625671 364.895935,512.172424 
	C364.888336,510.073761 363.412231,507.980408 362.619690,505.884613 
z"/>
<path fill="#E0B29D" opacity="1.000000" stroke="none" 
	d="
M388.110535,618.700867 
	C387.257111,616.956116 386.083374,614.920837 386.078766,612.882935 
	C385.974609,566.949219 386.023407,521.015076 385.932587,475.081299 
	C385.927582,472.539520 384.964844,469.999634 384.153076,467.197876 
	C390.981049,453.621948 398.103821,440.307068 405.613403,427.212952 
	C406.333496,430.214661 406.953033,432.995148 406.957092,435.776581 
	C407.018768,478.131287 406.974670,520.486145 407.077118,562.840698 
	C407.082092,564.892212 408.210297,566.940979 408.815430,568.991028 
	C402.654388,583.443420 396.474701,597.888000 390.354340,612.357605 
	C389.528412,614.310181 389.000641,616.388855 388.110535,618.700867 
z"/>
<path fill="#C29075" opacity="1.000000" stroke="none" 
	d="
M621.444031,478.195862 
	C621.082703,445.530640 621.026367,412.738373 621.003784,379.946136 
	C620.977173,341.326874 620.979675,302.707581 620.957642,263.631104 
	C626.275269,268.426178 631.604736,273.678497 637.009827,279.732910 
	C637.056946,283.032837 637.004211,285.530670 637.003601,288.028473 
	C636.988892,346.322998 636.979858,404.617493 636.969727,462.911987 
	C631.901184,467.964294 626.832581,473.016571 621.444031,478.195862 
z"/>
<path fill="#D3A38C" opacity="1.000000" stroke="none" 
	d="
M362.373108,506.104065 
	C363.412231,507.980408 364.888336,510.073761 364.895935,512.172424 
	C365.034698,550.625671 364.997467,589.079590 364.997559,627.533325 
	C364.997589,637.021912 364.914948,646.511841 365.069122,655.997925 
	C365.099152,657.844910 366.050415,659.676880 366.821472,661.828674 
	C362.188110,670.123108 357.316681,678.108704 352.426239,686.082703 
	C351.491760,687.606445 350.482605,689.084351 348.852844,690.640747 
	C347.798126,688.675720 347.052460,686.653809 347.049561,684.630859 
	C346.983643,638.412292 347.032257,592.193542 346.901947,545.975281 
	C346.895294,543.613281 345.481537,541.255188 344.722931,538.895264 
	C350.524109,528.038025 356.325287,517.180725 362.373108,506.104065 
z"/>
<path fill="#E6B8A5" opacity="1.000000" stroke="none" 
	d="
M409.004791,568.674316 
	C408.210297,566.940979 407.082092,564.892212 407.077118,562.840698 
	C406.974670,520.486145 407.018768,478.131287 406.957092,435.776581 
	C406.953033,432.995148 406.333496,430.214661 405.895264,426.996338 
	C412.262207,416.341705 418.734131,406.124390 425.507935,395.736115 
	C426.206940,398.165100 426.945282,400.764435 426.950165,403.365112 
	C427.027069,444.517761 427.009857,485.670593 427.013489,527.274536 
	C426.055817,529.222351 424.858643,530.617981 424.180145,532.231689 
	C419.127045,544.249329 414.176697,556.310242 409.004791,568.674316 
z"/>
<path fill="#BE8B6F" opacity="1.000000" stroke="none" 
	d="
M637.270996,462.772095 
	C636.979858,404.617493 636.988892,346.322998 637.003601,288.028473 
	C637.004211,285.530670 637.056946,283.032837 637.122192,280.034546 
	C643.117737,288.362061 649.076416,297.190063 654.916992,306.760742 
	C654.533386,309.627808 654.038818,311.751923 654.036316,313.876587 
	C653.990051,353.330292 653.988770,392.784058 654.044128,432.237701 
	C654.046814,434.156952 654.655640,436.075378 654.982300,437.994141 
	C649.178894,446.206818 643.375488,454.419495 637.270996,462.772095 
z"/>
<path fill="#EDC0AE" opacity="1.000000" stroke="none" 
	d="
M427.904114,230.754013 
	C439.564392,228.503479 451.196899,226.091248 462.898071,224.078445 
	C467.890533,223.219650 473.026459,223.194824 478.550049,223.339752 
	C479.016602,240.965775 479.030334,258.043060 479.044067,275.120361 
	C463.938934,277.410522 448.831299,279.684845 433.732086,282.013702 
	C432.098114,282.265717 430.512878,282.833679 428.479797,282.815552 
	C428.004395,265.168701 427.954254,247.961349 427.904114,230.754013 
z"/>
<path fill="#D0A088" opacity="1.000000" stroke="none" 
	d="
M344.460510,539.103882 
	C345.481537,541.255188 346.895294,543.613281 346.901947,545.975281 
	C347.032257,592.193542 346.983643,638.412292 347.049561,684.630859 
	C347.052460,686.653809 347.798126,688.675720 348.563049,690.836914 
	C343.470306,697.227539 338.012299,703.479370 331.875488,709.711853 
	C330.796997,707.666809 330.051666,705.641602 330.048492,703.615295 
	C329.981384,660.480469 330.012146,617.345520 329.952972,574.210693 
	C329.950134,572.133850 329.297882,570.057922 328.947998,567.981567 
	C334.031372,558.425232 339.114716,548.868896 344.460510,539.103882 
z"/>
<path fill="#CA9980" opacity="1.000000" stroke="none" 
	d="
M328.673340,568.187317 
	C329.297882,570.057922 329.950134,572.133850 329.952972,574.210693 
	C330.012146,617.345520 329.981384,660.480469 330.048492,703.615295 
	C330.051666,705.641602 330.796997,707.666809 331.560913,709.833008 
	C326.190186,713.555176 320.455231,717.136780 314.276764,720.339539 
	C313.554718,717.503235 313.037231,715.046204 313.033539,712.588379 
	C312.980804,677.500549 313.022888,642.412598 312.945740,607.324890 
	C312.940033,604.729858 312.196442,602.136353 311.795898,599.542175 
	C317.330139,589.159119 322.864410,578.776062 328.673340,568.187317 
z"/>
<path fill="#D0A088" opacity="1.000000" stroke="none" 
	d="
M584.676025,240.074646 
	C584.994812,266.911896 585.047607,293.565002 584.926758,320.217346 
	C584.914429,322.939697 583.859558,325.657318 583.124634,328.732239 
	C575.886780,315.832367 567.316528,303.788513 555.331909,294.249146 
	C556.034485,292.004700 556.929993,290.198578 556.939026,288.388031 
	C557.036011,268.976532 556.992981,249.564346 556.988281,230.152359 
	C566.112427,233.398346 575.236572,236.644333 584.676025,240.074646 
z"/>
<path fill="#C6947A" opacity="1.000000" stroke="none" 
	d="
M311.517212,599.765137 
	C312.196442,602.136353 312.940033,604.729858 312.945740,607.324890 
	C313.022888,642.412598 312.980804,677.500549 313.033539,712.588379 
	C313.037231,715.046204 313.554718,717.503235 313.921448,720.353149 
	C307.945312,720.816528 301.881073,720.887390 295.413208,720.365234 
	C295.006012,693.822876 295.041107,667.873413 294.947998,641.924377 
	C294.936829,638.809204 294.230164,635.696594 293.845886,632.582764 
	C299.643433,621.717896 305.440979,610.852966 311.517212,599.765137 
z"/>
<path fill="#CA9980" opacity="1.000000" stroke="none" 
	d="
M324.245880,388.667114 
	C319.121979,395.524414 313.998077,402.381714 308.394318,408.993713 
	C307.609650,406.303406 307.044861,403.858978 307.039001,401.413269 
	C306.951111,364.864380 306.937012,328.315308 306.905518,291.766296 
	C312.034821,287.529816 317.164093,283.293335 322.636108,279.440979 
	C322.986359,313.516632 322.966614,347.208221 323.054993,380.899536 
	C323.061798,383.489746 323.831024,386.077972 324.245880,388.667114 
z"/>
<path fill="#C6947A" opacity="1.000000" stroke="none" 
	d="
M306.585327,291.886017 
	C306.937012,328.315308 306.951111,364.864380 307.039001,401.413269 
	C307.044861,403.858978 307.609650,406.303406 308.097656,409.171814 
	C303.101044,412.703278 297.921265,415.811371 292.292175,418.500305 
	C291.561981,415.619629 291.040802,413.158508 291.036469,410.696472 
	C290.981232,379.232025 291.025818,347.767426 290.955505,316.303040 
	C290.949249,313.512756 290.316772,310.723877 289.975128,307.934326 
	C295.405121,302.624786 300.835114,297.315247 306.585327,291.886017 
z"/>
<path fill="#C29075" opacity="1.000000" stroke="none" 
	d="
M289.669647,308.075989 
	C290.316772,310.723877 290.949249,313.512756 290.955505,316.303040 
	C291.025818,347.767426 290.981232,379.232025 291.036469,410.696472 
	C291.040802,413.158508 291.561981,415.619629 291.922241,418.484314 
	C285.871918,419.200562 279.742310,419.513641 273.262451,419.162903 
	C272.941864,398.343262 272.988159,378.187408 272.994110,358.031525 
	C272.997040,348.258270 272.924347,338.485016 272.885895,328.711761 
	C278.378632,321.880371 283.871399,315.049011 289.669647,308.075989 
z"/>
<path fill="#E0B29D" opacity="1.000000" stroke="none" 
	d="
M528.017456,522.201355 
	C518.977722,523.873474 509.937988,525.545532 500.457947,526.680786 
	C499.941284,506.200287 499.864929,486.256561 499.788574,466.312805 
	C508.194153,463.520142 516.599731,460.727478 525.677368,458.159180 
	C526.899597,460.736603 527.910156,463.086426 527.927063,465.443329 
	C528.063110,484.361908 528.011536,503.281830 528.017456,522.201355 
z"/>
<path fill="#DAAA94" opacity="1.000000" stroke="none" 
	d="
M556.639709,229.996918 
	C556.992981,249.564346 557.036011,268.976532 556.939026,288.388031 
	C556.929993,290.198578 556.034485,292.004700 555.163452,293.952454 
	C545.203125,289.326080 535.629761,284.560181 526.102295,279.292816 
	C526.765320,276.473572 527.894714,274.160797 527.917297,271.837280 
	C528.072021,255.954483 527.994385,240.069427 527.991699,224.185104 
	C537.424866,226.070557 546.857971,227.956009 556.639709,229.996918 
z"/>
<path fill="#D0A088" opacity="1.000000" stroke="none" 
	d="
M324.523407,388.428253 
	C323.831024,386.077972 323.061798,383.489746 323.054993,380.899536 
	C322.966614,347.208221 322.986359,313.516632 322.967346,279.348145 
	C328.068634,275.270447 333.181427,271.669739 338.713562,268.420349 
	C339.422241,271.233643 339.956726,273.694977 339.963043,276.157684 
	C340.025787,300.635223 339.956085,325.113190 340.093079,349.590118 
	C340.103241,351.411469 341.418976,353.225555 342.127808,355.042999 
	C336.352173,366.091797 330.576569,377.140594 324.523407,388.428253 
z"/>
<path fill="#DAAA94" opacity="1.000000" stroke="none" 
	d="
M528.433533,522.219299 
	C528.011536,503.281830 528.063110,484.361908 527.927063,465.443329 
	C527.910156,463.086426 526.899597,460.736603 526.042847,458.121887 
	C533.906616,453.575195 542.077087,449.290100 550.759766,445.314178 
	C551.514587,447.579895 551.964050,449.536011 551.968201,451.493042 
	C552.013733,472.901886 551.989746,494.310852 551.984680,515.719788 
	C544.273010,517.892273 536.561340,520.064758 528.433533,522.219299 
z"/>
<path fill="#E0B29D" opacity="1.000000" stroke="none" 
	d="
M527.584839,224.084824 
	C527.994385,240.069427 528.072021,255.954483 527.917297,271.837280 
	C527.894714,274.160797 526.765320,276.473572 525.816406,279.055054 
	C516.590759,277.937256 507.696930,276.555725 498.402191,274.598724 
	C498.002106,269.192139 498.095215,264.358917 497.985657,259.530304 
	C497.702911,247.071854 497.330627,234.615433 496.994110,222.158188 
	C507.055420,222.766983 517.116699,223.375763 527.584839,224.084824 
z"/>
<path fill="#B78466" opacity="1.000000" stroke="none" 
	d="
M655.242798,437.770386 
	C654.655640,436.075378 654.046814,434.156952 654.044128,432.237701 
	C653.988770,392.784058 653.990051,353.330292 654.036316,313.876587 
	C654.038818,311.751923 654.533386,309.627808 654.981140,307.102844 
	C662.336548,318.910339 666.143799,332.288025 668.433716,346.106537 
	C672.798279,372.444397 672.299805,398.462341 662.137634,423.625671 
	C660.216309,428.383118 657.729309,432.912140 655.242798,437.770386 
z"/>
<path fill="#D3A38C" opacity="1.000000" stroke="none" 
	d="
M342.404785,354.851440 
	C341.418976,353.225555 340.103241,351.411469 340.093079,349.590118 
	C339.956085,325.113190 340.025787,300.635223 339.963043,276.157684 
	C339.956726,273.694977 339.422241,271.233643 339.057190,268.356567 
	C345.740997,263.964294 352.500549,259.987061 359.618164,256.395752 
	C359.662018,258.733856 359.082153,260.685028 359.074677,262.638367 
	C358.999451,282.335236 358.953491,302.033051 359.142761,321.728271 
	C359.156647,323.171661 361.061615,324.596832 362.087402,326.030518 
	C355.618866,335.573639 349.150330,345.116730 342.404785,354.851440 
z"/>
<path fill="#BE8B6F" opacity="1.000000" stroke="none" 
	d="
M272.591919,328.892700 
	C272.924347,338.485016 272.997040,348.258270 272.994110,358.031525 
	C272.988159,378.187408 272.941864,398.343262 272.873047,419.002258 
	C258.333710,417.142120 250.001114,407.276367 249.116684,391.377930 
	C248.485184,380.026154 250.754059,369.076111 255.597672,358.985291 
	C260.529785,348.710114 266.680664,339.019958 272.591919,328.892700 
z"/>
<path fill="#D3A38C" opacity="1.000000" stroke="none" 
	d="
M552.345215,515.687500 
	C551.989746,494.310852 552.013733,472.901886 551.968201,451.493042 
	C551.964050,449.536011 551.514587,447.579895 551.102905,445.229248 
	C557.024353,439.948212 563.114807,435.061340 569.895996,430.187439 
	C571.057739,432.186707 571.930908,434.171417 571.938782,436.159546 
	C572.033020,460.105072 571.999268,484.051056 571.998962,507.996948 
	C565.567871,510.549713 559.136841,513.102478 552.345215,515.687500 
z"/>
<path fill="#E6B8A5" opacity="1.000000" stroke="none" 
	d="
M499.375977,466.342224 
	C499.864929,486.256561 499.941284,506.200287 500.023926,526.618713 
	C491.941193,527.865356 483.852234,528.637329 475.358002,529.302002 
	C474.969971,512.375854 475.015289,495.556976 474.966644,478.738403 
	C474.960968,476.774811 474.436462,474.812714 474.075043,472.441223 
	C482.319519,470.145569 490.641449,468.258606 499.375977,466.342224 
z"/>
<path fill="#D0A088" opacity="1.000000" stroke="none" 
	d="
M572.364746,507.982178 
	C571.999268,484.051056 572.033020,460.105072 571.938782,436.159546 
	C571.930908,434.171417 571.057739,432.186707 570.201904,430.063721 
	C575.327209,422.350067 580.837219,414.773071 586.617554,406.969757 
	C587.591858,409.025818 588.897400,411.305267 588.908447,413.590942 
	C589.046021,442.048065 588.995544,470.506134 588.993530,499.425140 
	C583.572693,502.580048 578.151611,505.273712 572.364746,507.982178 
z"/>
<path fill="#DAAA94" opacity="1.000000" stroke="none" 
	d="
M362.383667,325.866211 
	C361.061615,324.596832 359.156647,323.171661 359.142761,321.728271 
	C358.953491,302.033051 358.999451,282.335236 359.074677,262.638367 
	C359.082153,260.685028 359.662018,258.733856 359.974609,256.349030 
	C366.739288,252.624985 373.505554,249.333557 380.637390,246.506760 
	C381.002502,264.797577 380.965668,282.623932 381.054962,300.449677 
	C381.064423,302.338928 381.813629,304.224487 382.219635,306.111755 
	C375.706390,312.641785 369.193146,319.171844 362.383667,325.866211 
z"/>
<path fill="#C29075" opacity="1.000000" stroke="none" 
	d="
M293.566650,632.804810 
	C294.230164,635.696594 294.936829,638.809204 294.947998,641.924377 
	C295.041107,667.873413 295.006012,693.822876 295.011475,720.219116 
	C281.283478,717.366150 273.043213,707.189697 271.962494,692.458496 
	C271.071716,680.316406 274.206787,669.091980 279.639252,658.441223 
	C284.007355,649.877258 288.724884,641.491577 293.566650,632.804810 
z"/>
<path fill="#E6B8A5" opacity="1.000000" stroke="none" 
	d="
M427.492279,230.752029 
	C427.954254,247.961349 428.004395,265.168701 428.078033,282.867767 
	C420.683838,286.242065 413.266144,289.124634 405.152283,291.811615 
	C403.971191,289.615417 403.085388,287.618561 403.066315,285.613495 
	C402.940552,272.390167 403.053955,259.164673 402.956146,245.940887 
	C402.936890,243.334137 402.337769,240.731689 402.006012,238.127258 
	C410.364136,235.668198 418.722290,233.209122 427.492279,230.752029 
z"/>
<path fill="#E0B29D" opacity="1.000000" stroke="none" 
	d="
M401.629944,238.120865 
	C402.337769,240.731689 402.936890,243.334137 402.956146,245.940887 
	C403.053955,259.164673 402.940552,272.390167 403.066315,285.613495 
	C403.085388,287.618561 403.971191,289.615417 404.789490,291.838623 
	C397.703217,296.678711 390.283508,301.296204 382.541718,306.012695 
	C381.813629,304.224487 381.064423,302.338928 381.054962,300.449677 
	C380.965668,282.623932 381.002502,264.797577 381.003418,246.505234 
	C387.753876,243.397552 394.503845,240.756012 401.629944,238.120865 
z"/>
<path fill="#E6B8A5" opacity="1.000000" stroke="none" 
	d="
M496.532196,222.095856 
	C497.330627,234.615433 497.702911,247.071854 497.985657,259.530304 
	C498.095215,264.358917 498.002106,269.192139 497.999054,274.488983 
	C491.983551,275.076599 485.970276,275.198456 479.500549,275.220337 
	C479.030334,258.043060 479.016602,240.965775 479.002380,223.416153 
	C484.691345,222.640396 490.380798,222.336960 496.532196,222.095856 
z"/>
</svg>